M48
; DRILL file {KiCad (6.0.0)} date Sat Jan 15 23:57:33 2022
; FORMAT={-:-/ absolute / metric / decimal}
; #@! TF.CreationDate,2022-01-15T23:57:33+13:00
; #@! TF.GenerationSoftware,Kicad,Pcbnew,(6.0.0)
; #@! TF.FileFunction,Plated,1,2,PTH
FMAT,2
METRIC
; #@! TA.AperFunction,Plated,PTH,ComponentDrill
T1C0.600
; #@! TA.AperFunction,Plated,PTH,ComponentDrill
T2C0.700
; #@! TA.AperFunction,Plated,PTH,ComponentDrill
T3C0.800
; #@! TA.AperFunction,Plated,PTH,ComponentDrill
T4C1.000
; #@! TA.AperFunction,Plated,PTH,ComponentDrill
T5C1.100
%
G90
G05
T1
X171.58Y-93.554
X171.58Y-95.054
T2
X147.574Y-106.791
X147.574Y-108.691
X166.116Y-106.955
X166.116Y-108.855
X168.656Y-106.955
X168.656Y-108.855
T3
X150.39Y-106.095
X150.39Y-108.635
X153.67Y-103.388
X153.67Y-105.928
X153.67Y-108.468
X153.67Y-111.008
X154.94Y-93.533
X154.94Y-95.533
X161.116Y-99.568
X161.29Y-103.388
X161.29Y-105.928
X161.29Y-108.468
X161.29Y-111.008
X163.72Y-103.438
X166.116Y-99.568
X168.72Y-103.438
T4
X143.787Y-94.483
X143.787Y-99.563
X144.018Y-105.918
X144.018Y-108.458
X148.867Y-94.483
X148.867Y-99.563
X155.448Y-99.568
X157.988Y-99.568
X169.672Y-99.568
X171.958Y-103.632
X171.958Y-106.172
X171.958Y-108.712
X172.212Y-99.568
T5
X161.036Y-94.996
X163.576Y-94.996
X166.116Y-94.996
T0
M30
