%TF.GenerationSoftware,KiCad,Pcbnew,(6.0.0)*%
%TF.CreationDate,2022-01-15T23:56:29+13:00*%
%TF.ProjectId,DCC_PCB,4443435f-5043-4422-9e6b-696361645f70,rev?*%
%TF.SameCoordinates,Original*%
%TF.FileFunction,Copper,L2,Bot*%
%TF.FilePolarity,Positive*%
%FSLAX46Y46*%
G04 Gerber Fmt 4.6, Leading zero omitted, Abs format (unit mm)*
G04 Created by KiCad (PCBNEW (6.0.0)) date 2022-01-15 23:56:29*
%MOMM*%
%LPD*%
G01*
G04 APERTURE LIST*
%TA.AperFunction,ComponentPad*%
%ADD10R,1.700000X1.700000*%
%TD*%
%TA.AperFunction,ComponentPad*%
%ADD11O,1.700000X1.700000*%
%TD*%
%TA.AperFunction,ComponentPad*%
%ADD12C,1.400000*%
%TD*%
%TA.AperFunction,ComponentPad*%
%ADD13O,1.400000X1.400000*%
%TD*%
%TA.AperFunction,ComponentPad*%
%ADD14R,1.200000X1.200000*%
%TD*%
%TA.AperFunction,ComponentPad*%
%ADD15C,1.200000*%
%TD*%
%TA.AperFunction,ComponentPad*%
%ADD16C,1.600000*%
%TD*%
%TA.AperFunction,ComponentPad*%
%ADD17R,1.600000X1.600000*%
%TD*%
%TA.AperFunction,ComponentPad*%
%ADD18O,1.600000X1.600000*%
%TD*%
%TA.AperFunction,ComponentPad*%
%ADD19R,1.905000X2.000000*%
%TD*%
%TA.AperFunction,ComponentPad*%
%ADD20O,1.905000X2.000000*%
%TD*%
%TA.AperFunction,ComponentPad*%
%ADD21R,2.000000X2.000000*%
%TD*%
%TA.AperFunction,ComponentPad*%
%ADD22O,2.000000X2.000000*%
%TD*%
G04 APERTURE END LIST*
D10*
%TO.P,J4,1,Pin_1*%
%TO.N,+5V*%
X169672000Y-99568000D03*
D11*
%TO.P,J4,2,Pin_2*%
%TO.N,Net-(C2-Pad1)*%
X172212000Y-99568000D03*
%TD*%
D12*
%TO.P,R2,1*%
%TO.N,Net-(R2-Pad1)*%
X166116000Y-108855000D03*
D13*
%TO.P,R2,2*%
%TO.N,+5V*%
X166116000Y-106955000D03*
%TD*%
D14*
%TO.P,C2,1*%
%TO.N,Net-(C2-Pad1)*%
X171580000Y-93554401D03*
D15*
%TO.P,C2,2*%
%TO.N,Net-(C1-Pad2)*%
X171580000Y-95054401D03*
%TD*%
D16*
%TO.P,C3,1*%
%TO.N,Net-(C2-Pad1)*%
X166116000Y-99568000D03*
%TO.P,C3,2*%
%TO.N,Net-(C1-Pad2)*%
X161116000Y-99568000D03*
%TD*%
D17*
%TO.P,U2,1,NC*%
%TO.N,unconnected-(U2-Pad1)*%
X153670000Y-103388000D03*
D18*
%TO.P,U2,2,A*%
%TO.N,Net-(D2-Pad1)*%
X153670000Y-105928000D03*
%TO.P,U2,3,C*%
%TO.N,TRACK_B*%
X153670000Y-108468000D03*
%TO.P,U2,4*%
%TO.N,N/C*%
X153670000Y-111008000D03*
%TO.P,U2,5,GND*%
%TO.N,GND*%
X161290000Y-111008000D03*
%TO.P,U2,6,VO*%
%TO.N,DCC_DATA*%
X161290000Y-108468000D03*
%TO.P,U2,7,EN*%
%TO.N,Net-(R2-Pad1)*%
X161290000Y-105928000D03*
%TO.P,U2,8,VCC*%
%TO.N,+5V*%
X161290000Y-103388000D03*
%TD*%
D10*
%TO.P,J3,1,Pin_1*%
%TO.N,+5V*%
X171958000Y-103632000D03*
D11*
%TO.P,J3,2,Pin_2*%
%TO.N,DCC_DATA*%
X171958000Y-106172000D03*
%TO.P,J3,3,Pin_3*%
%TO.N,GND*%
X171958000Y-108712000D03*
%TD*%
D16*
%TO.P,C4,1*%
%TO.N,+5V*%
X163720000Y-103438000D03*
%TO.P,C4,2*%
%TO.N,GND*%
X168720000Y-103438000D03*
%TD*%
D17*
%TO.P,D2,1,K*%
%TO.N,Net-(D2-Pad1)*%
X150390000Y-106094686D03*
D18*
%TO.P,D2,2,A*%
%TO.N,TRACK_B*%
X150390000Y-108634686D03*
%TD*%
D19*
%TO.P,U1,1,VI*%
%TO.N,Net-(C1-Pad1)*%
X161036000Y-94996000D03*
D20*
%TO.P,U1,2,GND*%
%TO.N,Net-(C1-Pad2)*%
X163576000Y-94996000D03*
%TO.P,U1,3,VO*%
%TO.N,Net-(C2-Pad1)*%
X166116000Y-94996000D03*
%TD*%
D12*
%TO.P,R1,1*%
%TO.N,TRACK_A*%
X147574000Y-106791000D03*
D13*
%TO.P,R1,2*%
%TO.N,Net-(D2-Pad1)*%
X147574000Y-108691000D03*
%TD*%
D12*
%TO.P,R3,1*%
%TO.N,DCC_DATA*%
X168656000Y-108855000D03*
D13*
%TO.P,R3,2*%
%TO.N,+5V*%
X168656000Y-106955000D03*
%TD*%
D21*
%TO.P,D1,1,+*%
%TO.N,Net-(C1-Pad1)*%
X143787000Y-94483000D03*
D22*
%TO.P,D1,2*%
%TO.N,TRACK_B*%
X143787000Y-99563000D03*
%TO.P,D1,3,-*%
%TO.N,Net-(C1-Pad2)*%
X148867000Y-99563000D03*
%TO.P,D1,4*%
%TO.N,TRACK_A*%
X148867000Y-94483000D03*
%TD*%
D17*
%TO.P,C1,1*%
%TO.N,Net-(C1-Pad1)*%
X154940000Y-93532888D03*
D16*
%TO.P,C1,2*%
%TO.N,Net-(C1-Pad2)*%
X154940000Y-95532888D03*
%TD*%
D10*
%TO.P,J2,1,Pin_1*%
%TO.N,Net-(C1-Pad2)*%
X157988000Y-99568000D03*
D11*
%TO.P,J2,2,Pin_2*%
%TO.N,GND*%
X155448000Y-99568000D03*
%TD*%
D10*
%TO.P,J1,1,Pin_1*%
%TO.N,TRACK_A*%
X144018000Y-105918000D03*
D11*
%TO.P,J1,2,Pin_2*%
%TO.N,TRACK_B*%
X144018000Y-108458000D03*
%TD*%
%TA.AperFunction,Conductor*%
%TO.N,GND*%
G36*
X173678121Y-91460002D02*
G01*
X173724614Y-91513658D01*
X173736000Y-91566000D01*
X173736000Y-99060106D01*
X173715998Y-99128227D01*
X173662342Y-99174720D01*
X173592068Y-99184824D01*
X173527488Y-99155330D01*
X173494451Y-99110349D01*
X173415419Y-98928590D01*
X173413354Y-98923840D01*
X173292014Y-98736277D01*
X173141670Y-98571051D01*
X173137619Y-98567852D01*
X173137615Y-98567848D01*
X172970414Y-98435800D01*
X172970410Y-98435798D01*
X172966359Y-98432598D01*
X172958304Y-98428151D01*
X172914136Y-98403769D01*
X172770789Y-98324638D01*
X172765920Y-98322914D01*
X172765916Y-98322912D01*
X172565087Y-98251795D01*
X172565083Y-98251794D01*
X172560212Y-98250069D01*
X172555119Y-98249162D01*
X172555116Y-98249161D01*
X172345373Y-98211800D01*
X172345367Y-98211799D01*
X172340284Y-98210894D01*
X172266452Y-98209992D01*
X172122081Y-98208228D01*
X172122079Y-98208228D01*
X172116911Y-98208165D01*
X171896091Y-98241955D01*
X171683756Y-98311357D01*
X171485607Y-98414507D01*
X171481474Y-98417610D01*
X171481471Y-98417612D01*
X171376020Y-98496787D01*
X171306965Y-98548635D01*
X171228252Y-98631004D01*
X171226283Y-98633064D01*
X171164759Y-98668494D01*
X171093846Y-98665037D01*
X171036060Y-98623791D01*
X171017207Y-98590243D01*
X170975767Y-98479703D01*
X170972615Y-98471295D01*
X170885261Y-98354739D01*
X170768705Y-98267385D01*
X170632316Y-98216255D01*
X170570134Y-98209500D01*
X168773866Y-98209500D01*
X168711684Y-98216255D01*
X168575295Y-98267385D01*
X168458739Y-98354739D01*
X168371385Y-98471295D01*
X168320255Y-98607684D01*
X168313500Y-98669866D01*
X168313500Y-100466134D01*
X168320255Y-100528316D01*
X168371385Y-100664705D01*
X168458739Y-100781261D01*
X168575295Y-100868615D01*
X168711684Y-100919745D01*
X168773866Y-100926500D01*
X170570134Y-100926500D01*
X170632316Y-100919745D01*
X170768705Y-100868615D01*
X170885261Y-100781261D01*
X170972615Y-100664705D01*
X170994943Y-100605145D01*
X171016598Y-100547382D01*
X171059240Y-100490618D01*
X171125802Y-100465918D01*
X171195150Y-100481126D01*
X171229817Y-100509114D01*
X171258250Y-100541938D01*
X171430126Y-100684632D01*
X171623000Y-100797338D01*
X171627825Y-100799180D01*
X171627826Y-100799181D01*
X171700612Y-100826975D01*
X171831692Y-100877030D01*
X171836760Y-100878061D01*
X171836763Y-100878062D01*
X171931862Y-100897410D01*
X172050597Y-100921567D01*
X172055772Y-100921757D01*
X172055774Y-100921757D01*
X172268673Y-100929564D01*
X172268677Y-100929564D01*
X172273837Y-100929753D01*
X172278957Y-100929097D01*
X172278959Y-100929097D01*
X172490288Y-100902025D01*
X172490289Y-100902025D01*
X172495416Y-100901368D01*
X172500366Y-100899883D01*
X172704429Y-100838661D01*
X172704434Y-100838659D01*
X172709384Y-100837174D01*
X172909994Y-100738896D01*
X173091860Y-100609173D01*
X173123788Y-100577357D01*
X173235616Y-100465918D01*
X173250096Y-100451489D01*
X173281498Y-100407789D01*
X173377435Y-100274277D01*
X173380453Y-100270077D01*
X173388309Y-100254183D01*
X173477136Y-100074453D01*
X173477137Y-100074451D01*
X173479430Y-100069811D01*
X173489442Y-100036858D01*
X173528383Y-99977494D01*
X173593237Y-99948607D01*
X173663413Y-99959369D01*
X173716631Y-100006362D01*
X173736000Y-100073487D01*
X173736000Y-112650000D01*
X173715998Y-112718121D01*
X173662342Y-112764614D01*
X173610000Y-112776000D01*
X141858000Y-112776000D01*
X141789879Y-112755998D01*
X141743386Y-112702342D01*
X141732000Y-112650000D01*
X141732000Y-111008000D01*
X152356502Y-111008000D01*
X152376457Y-111236087D01*
X152377881Y-111241400D01*
X152377881Y-111241402D01*
X152387031Y-111275548D01*
X152435716Y-111457243D01*
X152438039Y-111462224D01*
X152438039Y-111462225D01*
X152530151Y-111659762D01*
X152530154Y-111659767D01*
X152532477Y-111664749D01*
X152663802Y-111852300D01*
X152825700Y-112014198D01*
X152830208Y-112017355D01*
X152830211Y-112017357D01*
X152887560Y-112057513D01*
X153013251Y-112145523D01*
X153018233Y-112147846D01*
X153018238Y-112147849D01*
X153187776Y-112226905D01*
X153220757Y-112242284D01*
X153226065Y-112243706D01*
X153226067Y-112243707D01*
X153436598Y-112300119D01*
X153436600Y-112300119D01*
X153441913Y-112301543D01*
X153670000Y-112321498D01*
X153898087Y-112301543D01*
X153903400Y-112300119D01*
X153903402Y-112300119D01*
X154113933Y-112243707D01*
X154113935Y-112243706D01*
X154119243Y-112242284D01*
X154152224Y-112226905D01*
X154321762Y-112147849D01*
X154321767Y-112147846D01*
X154326749Y-112145523D01*
X154452440Y-112057513D01*
X154509789Y-112017357D01*
X154509792Y-112017355D01*
X154514300Y-112014198D01*
X154676198Y-111852300D01*
X154807523Y-111664749D01*
X154809846Y-111659767D01*
X154809849Y-111659762D01*
X154901961Y-111462225D01*
X154901961Y-111462224D01*
X154904284Y-111457243D01*
X154952970Y-111275548D01*
X154953245Y-111274522D01*
X160007273Y-111274522D01*
X160054764Y-111451761D01*
X160058510Y-111462053D01*
X160150586Y-111659511D01*
X160156069Y-111669007D01*
X160281028Y-111847467D01*
X160288084Y-111855875D01*
X160442125Y-112009916D01*
X160450533Y-112016972D01*
X160628993Y-112141931D01*
X160638489Y-112147414D01*
X160835947Y-112239490D01*
X160846239Y-112243236D01*
X161018503Y-112289394D01*
X161032599Y-112289058D01*
X161036000Y-112281116D01*
X161036000Y-112275967D01*
X161544000Y-112275967D01*
X161547973Y-112289498D01*
X161556522Y-112290727D01*
X161733761Y-112243236D01*
X161744053Y-112239490D01*
X161941511Y-112147414D01*
X161951007Y-112141931D01*
X162129467Y-112016972D01*
X162137875Y-112009916D01*
X162291916Y-111855875D01*
X162298972Y-111847467D01*
X162423931Y-111669007D01*
X162429414Y-111659511D01*
X162521490Y-111462053D01*
X162525236Y-111451761D01*
X162571394Y-111279497D01*
X162571058Y-111265401D01*
X162563116Y-111262000D01*
X161562115Y-111262000D01*
X161546876Y-111266475D01*
X161545671Y-111267865D01*
X161544000Y-111275548D01*
X161544000Y-112275967D01*
X161036000Y-112275967D01*
X161036000Y-111280115D01*
X161031525Y-111264876D01*
X161030135Y-111263671D01*
X161022452Y-111262000D01*
X160022033Y-111262000D01*
X160008502Y-111265973D01*
X160007273Y-111274522D01*
X154953245Y-111274522D01*
X154962119Y-111241402D01*
X154962119Y-111241400D01*
X154963543Y-111236087D01*
X154983498Y-111008000D01*
X154963543Y-110779913D01*
X154904284Y-110558757D01*
X154809966Y-110356489D01*
X154809849Y-110356238D01*
X154809846Y-110356233D01*
X154807523Y-110351251D01*
X154676198Y-110163700D01*
X154514300Y-110001802D01*
X154509792Y-109998645D01*
X154509789Y-109998643D01*
X154407193Y-109926805D01*
X154326749Y-109870477D01*
X154321767Y-109868154D01*
X154321762Y-109868151D01*
X154287543Y-109852195D01*
X154234258Y-109805278D01*
X154214797Y-109737001D01*
X154235339Y-109669041D01*
X154287543Y-109623805D01*
X154321762Y-109607849D01*
X154321767Y-109607846D01*
X154326749Y-109605523D01*
X154478632Y-109499173D01*
X154509789Y-109477357D01*
X154509792Y-109477355D01*
X154514300Y-109474198D01*
X154676198Y-109312300D01*
X154686521Y-109297558D01*
X154804366Y-109129257D01*
X154807523Y-109124749D01*
X154809846Y-109119767D01*
X154809849Y-109119762D01*
X154901961Y-108922225D01*
X154901961Y-108922224D01*
X154904284Y-108917243D01*
X154918112Y-108865639D01*
X154962119Y-108701402D01*
X154962119Y-108701400D01*
X154963543Y-108696087D01*
X154983498Y-108468000D01*
X159976502Y-108468000D01*
X159996457Y-108696087D01*
X159997881Y-108701400D01*
X159997881Y-108701402D01*
X160041889Y-108865639D01*
X160055716Y-108917243D01*
X160058039Y-108922224D01*
X160058039Y-108922225D01*
X160150151Y-109119762D01*
X160150154Y-109119767D01*
X160152477Y-109124749D01*
X160155634Y-109129257D01*
X160273480Y-109297558D01*
X160283802Y-109312300D01*
X160445700Y-109474198D01*
X160450208Y-109477355D01*
X160450211Y-109477357D01*
X160481368Y-109499173D01*
X160633251Y-109605523D01*
X160638233Y-109607846D01*
X160638238Y-109607849D01*
X160673049Y-109624081D01*
X160726334Y-109670998D01*
X160745795Y-109739275D01*
X160725253Y-109807235D01*
X160673049Y-109852471D01*
X160638489Y-109868586D01*
X160628993Y-109874069D01*
X160450533Y-109999028D01*
X160442125Y-110006084D01*
X160288084Y-110160125D01*
X160281028Y-110168533D01*
X160156069Y-110346993D01*
X160150586Y-110356489D01*
X160058510Y-110553947D01*
X160054764Y-110564239D01*
X160008606Y-110736503D01*
X160008942Y-110750599D01*
X160016884Y-110754000D01*
X162557967Y-110754000D01*
X162571498Y-110750027D01*
X162572727Y-110741478D01*
X162525236Y-110564239D01*
X162521490Y-110553947D01*
X162429414Y-110356489D01*
X162423931Y-110346993D01*
X162298972Y-110168533D01*
X162291916Y-110160125D01*
X162137875Y-110006084D01*
X162129467Y-109999028D01*
X161951007Y-109874069D01*
X161941511Y-109868586D01*
X161906951Y-109852471D01*
X161853666Y-109805554D01*
X161834205Y-109737277D01*
X161854747Y-109669317D01*
X161906951Y-109624081D01*
X161941762Y-109607849D01*
X161941767Y-109607846D01*
X161946749Y-109605523D01*
X162098632Y-109499173D01*
X162129789Y-109477357D01*
X162129792Y-109477355D01*
X162134300Y-109474198D01*
X162296198Y-109312300D01*
X162306521Y-109297558D01*
X162424366Y-109129257D01*
X162427523Y-109124749D01*
X162429846Y-109119767D01*
X162429849Y-109119762D01*
X162521961Y-108922225D01*
X162521961Y-108922224D01*
X162524284Y-108917243D01*
X162538112Y-108865639D01*
X162540963Y-108855000D01*
X164902884Y-108855000D01*
X164921314Y-109065655D01*
X164922738Y-109070968D01*
X164922738Y-109070970D01*
X164934388Y-109114446D01*
X164976044Y-109269910D01*
X164978366Y-109274891D01*
X164978367Y-109274892D01*
X165053139Y-109435240D01*
X165065411Y-109461558D01*
X165186699Y-109634776D01*
X165336224Y-109784301D01*
X165509442Y-109905589D01*
X165514420Y-109907910D01*
X165514423Y-109907912D01*
X165600787Y-109948184D01*
X165701090Y-109994956D01*
X165706398Y-109996378D01*
X165706400Y-109996379D01*
X165900030Y-110048262D01*
X165900032Y-110048262D01*
X165905345Y-110049686D01*
X166116000Y-110068116D01*
X166326655Y-110049686D01*
X166331968Y-110048262D01*
X166331970Y-110048262D01*
X166525600Y-109996379D01*
X166525602Y-109996378D01*
X166530910Y-109994956D01*
X166631213Y-109948184D01*
X166717577Y-109907912D01*
X166717580Y-109907910D01*
X166722558Y-109905589D01*
X166895776Y-109784301D01*
X167045301Y-109634776D01*
X167166589Y-109461558D01*
X167178862Y-109435240D01*
X167253633Y-109274892D01*
X167253634Y-109274891D01*
X167255956Y-109269910D01*
X167264293Y-109238796D01*
X167301245Y-109178173D01*
X167365106Y-109147152D01*
X167435600Y-109155580D01*
X167490347Y-109200783D01*
X167507707Y-109238796D01*
X167516044Y-109269910D01*
X167518366Y-109274891D01*
X167518367Y-109274892D01*
X167593139Y-109435240D01*
X167605411Y-109461558D01*
X167726699Y-109634776D01*
X167876224Y-109784301D01*
X168049442Y-109905589D01*
X168054420Y-109907910D01*
X168054423Y-109907912D01*
X168140787Y-109948184D01*
X168241090Y-109994956D01*
X168246398Y-109996378D01*
X168246400Y-109996379D01*
X168440030Y-110048262D01*
X168440032Y-110048262D01*
X168445345Y-110049686D01*
X168656000Y-110068116D01*
X168866655Y-110049686D01*
X168871968Y-110048262D01*
X168871970Y-110048262D01*
X169065600Y-109996379D01*
X169065602Y-109996378D01*
X169070910Y-109994956D01*
X169171213Y-109948184D01*
X169257577Y-109907912D01*
X169257580Y-109907910D01*
X169262558Y-109905589D01*
X169435776Y-109784301D01*
X169585301Y-109634776D01*
X169706589Y-109461558D01*
X169718862Y-109435240D01*
X169793633Y-109274892D01*
X169793634Y-109274891D01*
X169795956Y-109269910D01*
X169837613Y-109114446D01*
X169849262Y-109070970D01*
X169849262Y-109070968D01*
X169850686Y-109065655D01*
X169858183Y-108979966D01*
X170626257Y-108979966D01*
X170656565Y-109114446D01*
X170659645Y-109124275D01*
X170739770Y-109321603D01*
X170744413Y-109330794D01*
X170855694Y-109512388D01*
X170861777Y-109520699D01*
X171001213Y-109681667D01*
X171008580Y-109688883D01*
X171172434Y-109824916D01*
X171180881Y-109830831D01*
X171364756Y-109938279D01*
X171374042Y-109942729D01*
X171573001Y-110018703D01*
X171582899Y-110021579D01*
X171686250Y-110042606D01*
X171700299Y-110041410D01*
X171704000Y-110031065D01*
X171704000Y-110030517D01*
X172212000Y-110030517D01*
X172216064Y-110044359D01*
X172229478Y-110046393D01*
X172236184Y-110045534D01*
X172246262Y-110043392D01*
X172450255Y-109982191D01*
X172459842Y-109978433D01*
X172651095Y-109884739D01*
X172659945Y-109879464D01*
X172833328Y-109755792D01*
X172841200Y-109749139D01*
X172992052Y-109598812D01*
X172998730Y-109590965D01*
X173123003Y-109418020D01*
X173128313Y-109409183D01*
X173222670Y-109218267D01*
X173226469Y-109208672D01*
X173288377Y-109004910D01*
X173290555Y-108994837D01*
X173291986Y-108983962D01*
X173289775Y-108969778D01*
X173276617Y-108966000D01*
X172230115Y-108966000D01*
X172214876Y-108970475D01*
X172213671Y-108971865D01*
X172212000Y-108979548D01*
X172212000Y-110030517D01*
X171704000Y-110030517D01*
X171704000Y-108984115D01*
X171699525Y-108968876D01*
X171698135Y-108967671D01*
X171690452Y-108966000D01*
X170641225Y-108966000D01*
X170627694Y-108969973D01*
X170626257Y-108979966D01*
X169858183Y-108979966D01*
X169869116Y-108855000D01*
X169850686Y-108644345D01*
X169805318Y-108475030D01*
X169797379Y-108445400D01*
X169797378Y-108445398D01*
X169795956Y-108440090D01*
X169793633Y-108435108D01*
X169708912Y-108253423D01*
X169708910Y-108253420D01*
X169706589Y-108248442D01*
X169585301Y-108075224D01*
X169504172Y-107994095D01*
X169470146Y-107931783D01*
X169475211Y-107860968D01*
X169504172Y-107815905D01*
X169585301Y-107734776D01*
X169706589Y-107561558D01*
X169710058Y-107554120D01*
X169793633Y-107374892D01*
X169793634Y-107374891D01*
X169795956Y-107369910D01*
X169801706Y-107348453D01*
X169849262Y-107170970D01*
X169849262Y-107170968D01*
X169850686Y-107165655D01*
X169869116Y-106955000D01*
X169850686Y-106744345D01*
X169833030Y-106678453D01*
X169797379Y-106545400D01*
X169797378Y-106545398D01*
X169795956Y-106540090D01*
X169758642Y-106460069D01*
X169708912Y-106353423D01*
X169708910Y-106353420D01*
X169706589Y-106348442D01*
X169585301Y-106175224D01*
X169548772Y-106138695D01*
X170595251Y-106138695D01*
X170595548Y-106143848D01*
X170595548Y-106143851D01*
X170601011Y-106238590D01*
X170608110Y-106361715D01*
X170657222Y-106579639D01*
X170741266Y-106786616D01*
X170743965Y-106791020D01*
X170847807Y-106960475D01*
X170857987Y-106977088D01*
X171004250Y-107145938D01*
X171176126Y-107288632D01*
X171234252Y-107322598D01*
X171249955Y-107331774D01*
X171298679Y-107383412D01*
X171311750Y-107453195D01*
X171285019Y-107518967D01*
X171244562Y-107552327D01*
X171236457Y-107556546D01*
X171227738Y-107562036D01*
X171057433Y-107689905D01*
X171049726Y-107696748D01*
X170902590Y-107850717D01*
X170896104Y-107858727D01*
X170776098Y-108034649D01*
X170771000Y-108043623D01*
X170681338Y-108236783D01*
X170677775Y-108246470D01*
X170622389Y-108446183D01*
X170623912Y-108454607D01*
X170636292Y-108458000D01*
X173276344Y-108458000D01*
X173289875Y-108454027D01*
X173291180Y-108444947D01*
X173249214Y-108277875D01*
X173245894Y-108268124D01*
X173160972Y-108072814D01*
X173156105Y-108063739D01*
X173040426Y-107884926D01*
X173034136Y-107876757D01*
X172890806Y-107719240D01*
X172883273Y-107712215D01*
X172716139Y-107580222D01*
X172707556Y-107574520D01*
X172670602Y-107554120D01*
X172620631Y-107503687D01*
X172605859Y-107434245D01*
X172630975Y-107367839D01*
X172658327Y-107341232D01*
X172709814Y-107304507D01*
X172837860Y-107213173D01*
X172845149Y-107205910D01*
X172992435Y-107059137D01*
X172996096Y-107055489D01*
X173020239Y-107021891D01*
X173123435Y-106878277D01*
X173126453Y-106874077D01*
X173178984Y-106767789D01*
X173223136Y-106678453D01*
X173223137Y-106678451D01*
X173225430Y-106673811D01*
X173290370Y-106460069D01*
X173319529Y-106238590D01*
X173319611Y-106235240D01*
X173321074Y-106175365D01*
X173321074Y-106175361D01*
X173321156Y-106172000D01*
X173302852Y-105949361D01*
X173248431Y-105732702D01*
X173159354Y-105527840D01*
X173038014Y-105340277D01*
X173034532Y-105336450D01*
X172890798Y-105178488D01*
X172859746Y-105114642D01*
X172868141Y-105044143D01*
X172913317Y-104989375D01*
X172939761Y-104975706D01*
X173046297Y-104935767D01*
X173054705Y-104932615D01*
X173171261Y-104845261D01*
X173258615Y-104728705D01*
X173309745Y-104592316D01*
X173316500Y-104530134D01*
X173316500Y-102733866D01*
X173309745Y-102671684D01*
X173258615Y-102535295D01*
X173171261Y-102418739D01*
X173054705Y-102331385D01*
X172918316Y-102280255D01*
X172856134Y-102273500D01*
X171059866Y-102273500D01*
X170997684Y-102280255D01*
X170861295Y-102331385D01*
X170744739Y-102418739D01*
X170657385Y-102535295D01*
X170606255Y-102671684D01*
X170599500Y-102733866D01*
X170599500Y-104530134D01*
X170606255Y-104592316D01*
X170657385Y-104728705D01*
X170744739Y-104845261D01*
X170861295Y-104932615D01*
X170869704Y-104935767D01*
X170869705Y-104935768D01*
X170978451Y-104976535D01*
X171035216Y-105019176D01*
X171059916Y-105085738D01*
X171044709Y-105155087D01*
X171025316Y-105181568D01*
X170898629Y-105314138D01*
X170772743Y-105498680D01*
X170678688Y-105701305D01*
X170618989Y-105916570D01*
X170618440Y-105921707D01*
X170617456Y-105930913D01*
X170595251Y-106138695D01*
X169548772Y-106138695D01*
X169435776Y-106025699D01*
X169262558Y-105904411D01*
X169257580Y-105902090D01*
X169257577Y-105902088D01*
X169075892Y-105817367D01*
X169075891Y-105817366D01*
X169070910Y-105815044D01*
X169065602Y-105813622D01*
X169065600Y-105813621D01*
X168871970Y-105761738D01*
X168871968Y-105761738D01*
X168866655Y-105760314D01*
X168656000Y-105741884D01*
X168445345Y-105760314D01*
X168440032Y-105761738D01*
X168440030Y-105761738D01*
X168246400Y-105813621D01*
X168246398Y-105813622D01*
X168241090Y-105815044D01*
X168236109Y-105817366D01*
X168236108Y-105817367D01*
X168054423Y-105902088D01*
X168054420Y-105902090D01*
X168049442Y-105904411D01*
X167876224Y-106025699D01*
X167726699Y-106175224D01*
X167605411Y-106348442D01*
X167603090Y-106353420D01*
X167603088Y-106353423D01*
X167553358Y-106460069D01*
X167516044Y-106540090D01*
X167514622Y-106545398D01*
X167514621Y-106545400D01*
X167507707Y-106571204D01*
X167470755Y-106631827D01*
X167406894Y-106662848D01*
X167336400Y-106654420D01*
X167281653Y-106609217D01*
X167264293Y-106571204D01*
X167257379Y-106545400D01*
X167257378Y-106545398D01*
X167255956Y-106540090D01*
X167218642Y-106460069D01*
X167168912Y-106353423D01*
X167168910Y-106353420D01*
X167166589Y-106348442D01*
X167045301Y-106175224D01*
X166895776Y-106025699D01*
X166722558Y-105904411D01*
X166717580Y-105902090D01*
X166717577Y-105902088D01*
X166535892Y-105817367D01*
X166535891Y-105817366D01*
X166530910Y-105815044D01*
X166525602Y-105813622D01*
X166525600Y-105813621D01*
X166331970Y-105761738D01*
X166331968Y-105761738D01*
X166326655Y-105760314D01*
X166116000Y-105741884D01*
X165905345Y-105760314D01*
X165900032Y-105761738D01*
X165900030Y-105761738D01*
X165706400Y-105813621D01*
X165706398Y-105813622D01*
X165701090Y-105815044D01*
X165696109Y-105817366D01*
X165696108Y-105817367D01*
X165514423Y-105902088D01*
X165514420Y-105902090D01*
X165509442Y-105904411D01*
X165336224Y-106025699D01*
X165186699Y-106175224D01*
X165065411Y-106348442D01*
X165063090Y-106353420D01*
X165063088Y-106353423D01*
X165013358Y-106460069D01*
X164976044Y-106540090D01*
X164974622Y-106545398D01*
X164974621Y-106545400D01*
X164938970Y-106678453D01*
X164921314Y-106744345D01*
X164902884Y-106955000D01*
X164921314Y-107165655D01*
X164922738Y-107170968D01*
X164922738Y-107170970D01*
X164970295Y-107348453D01*
X164976044Y-107369910D01*
X164978366Y-107374891D01*
X164978367Y-107374892D01*
X165061943Y-107554120D01*
X165065411Y-107561558D01*
X165186699Y-107734776D01*
X165267828Y-107815905D01*
X165301854Y-107878217D01*
X165296789Y-107949032D01*
X165267828Y-107994095D01*
X165186699Y-108075224D01*
X165065411Y-108248442D01*
X165063090Y-108253420D01*
X165063088Y-108253423D01*
X164978367Y-108435108D01*
X164976044Y-108440090D01*
X164974622Y-108445398D01*
X164974621Y-108445400D01*
X164966682Y-108475030D01*
X164921314Y-108644345D01*
X164902884Y-108855000D01*
X162540963Y-108855000D01*
X162582119Y-108701402D01*
X162582119Y-108701400D01*
X162583543Y-108696087D01*
X162603498Y-108468000D01*
X162583543Y-108239913D01*
X162582119Y-108234598D01*
X162525707Y-108024067D01*
X162525706Y-108024065D01*
X162524284Y-108018757D01*
X162507575Y-107982924D01*
X162429849Y-107816238D01*
X162429846Y-107816233D01*
X162427523Y-107811251D01*
X162342555Y-107689905D01*
X162299357Y-107628211D01*
X162299355Y-107628208D01*
X162296198Y-107623700D01*
X162134300Y-107461802D01*
X162129792Y-107458645D01*
X162129789Y-107458643D01*
X162010180Y-107374892D01*
X161946749Y-107330477D01*
X161941767Y-107328154D01*
X161941762Y-107328151D01*
X161907543Y-107312195D01*
X161854258Y-107265278D01*
X161834797Y-107197001D01*
X161855339Y-107129041D01*
X161907543Y-107083805D01*
X161941762Y-107067849D01*
X161941767Y-107067846D01*
X161946749Y-107065523D01*
X162112411Y-106949525D01*
X162129789Y-106937357D01*
X162129792Y-106937355D01*
X162134300Y-106934198D01*
X162296198Y-106772300D01*
X162315773Y-106744345D01*
X162378739Y-106654420D01*
X162427523Y-106584749D01*
X162429846Y-106579767D01*
X162429849Y-106579762D01*
X162521961Y-106382225D01*
X162521961Y-106382224D01*
X162524284Y-106377243D01*
X162533209Y-106343937D01*
X162582119Y-106161402D01*
X162582119Y-106161400D01*
X162583543Y-106156087D01*
X162603498Y-105928000D01*
X162583543Y-105699913D01*
X162571071Y-105653367D01*
X162525707Y-105484067D01*
X162525706Y-105484065D01*
X162524284Y-105478757D01*
X162461734Y-105344617D01*
X162429849Y-105276238D01*
X162429846Y-105276233D01*
X162427523Y-105271251D01*
X162296198Y-105083700D01*
X162134300Y-104921802D01*
X162129792Y-104918645D01*
X162129789Y-104918643D01*
X162030981Y-104849457D01*
X161946749Y-104790477D01*
X161941767Y-104788154D01*
X161941762Y-104788151D01*
X161907543Y-104772195D01*
X161854258Y-104725278D01*
X161834797Y-104657001D01*
X161855339Y-104589041D01*
X161907543Y-104543805D01*
X161941762Y-104527849D01*
X161941767Y-104527846D01*
X161946749Y-104525523D01*
X162088458Y-104426297D01*
X162129789Y-104397357D01*
X162129792Y-104397355D01*
X162134300Y-104394198D01*
X162296198Y-104232300D01*
X162299357Y-104227789D01*
X162384282Y-104106504D01*
X162439739Y-104062176D01*
X162510359Y-104054867D01*
X162573719Y-104086898D01*
X162590708Y-104106504D01*
X162683855Y-104239531D01*
X162713802Y-104282300D01*
X162875700Y-104444198D01*
X162880208Y-104447355D01*
X162880211Y-104447357D01*
X162958389Y-104502098D01*
X163063251Y-104575523D01*
X163068233Y-104577846D01*
X163068238Y-104577849D01*
X163242267Y-104658999D01*
X163270757Y-104672284D01*
X163276065Y-104673706D01*
X163276067Y-104673707D01*
X163486598Y-104730119D01*
X163486600Y-104730119D01*
X163491913Y-104731543D01*
X163720000Y-104751498D01*
X163948087Y-104731543D01*
X163953400Y-104730119D01*
X163953402Y-104730119D01*
X164163933Y-104673707D01*
X164163935Y-104673706D01*
X164169243Y-104672284D01*
X164197733Y-104658999D01*
X164371762Y-104577849D01*
X164371767Y-104577846D01*
X164376749Y-104575523D01*
X164450243Y-104524062D01*
X167998493Y-104524062D01*
X168007789Y-104536077D01*
X168058994Y-104571931D01*
X168068489Y-104577414D01*
X168265947Y-104669490D01*
X168276239Y-104673236D01*
X168486688Y-104729625D01*
X168497481Y-104731528D01*
X168714525Y-104750517D01*
X168725475Y-104750517D01*
X168942519Y-104731528D01*
X168953312Y-104729625D01*
X169163761Y-104673236D01*
X169174053Y-104669490D01*
X169371511Y-104577414D01*
X169381006Y-104571931D01*
X169433048Y-104535491D01*
X169441424Y-104525012D01*
X169434356Y-104511566D01*
X168732812Y-103810022D01*
X168718868Y-103802408D01*
X168717035Y-103802539D01*
X168710420Y-103806790D01*
X168004923Y-104512287D01*
X167998493Y-104524062D01*
X164450243Y-104524062D01*
X164481611Y-104502098D01*
X164559789Y-104447357D01*
X164559792Y-104447355D01*
X164564300Y-104444198D01*
X164726198Y-104282300D01*
X164760917Y-104232717D01*
X164854366Y-104099257D01*
X164857523Y-104094749D01*
X164859846Y-104089767D01*
X164859849Y-104089762D01*
X164951961Y-103892225D01*
X164951961Y-103892224D01*
X164954284Y-103887243D01*
X164969105Y-103831933D01*
X165012119Y-103671402D01*
X165012119Y-103671400D01*
X165013543Y-103666087D01*
X165033019Y-103443475D01*
X167407483Y-103443475D01*
X167426472Y-103660519D01*
X167428375Y-103671312D01*
X167484764Y-103881761D01*
X167488510Y-103892053D01*
X167580586Y-104089511D01*
X167586069Y-104099006D01*
X167622509Y-104151048D01*
X167632988Y-104159424D01*
X167646434Y-104152356D01*
X168347978Y-103450812D01*
X168354356Y-103439132D01*
X169084408Y-103439132D01*
X169084539Y-103440965D01*
X169088790Y-103447580D01*
X169794287Y-104153077D01*
X169806062Y-104159507D01*
X169818077Y-104150211D01*
X169853931Y-104099006D01*
X169859414Y-104089511D01*
X169951490Y-103892053D01*
X169955236Y-103881761D01*
X170011625Y-103671312D01*
X170013528Y-103660519D01*
X170032517Y-103443475D01*
X170032517Y-103432525D01*
X170013528Y-103215481D01*
X170011625Y-103204688D01*
X169955236Y-102994239D01*
X169951490Y-102983947D01*
X169859414Y-102786489D01*
X169853931Y-102776994D01*
X169817491Y-102724952D01*
X169807012Y-102716576D01*
X169793566Y-102723644D01*
X169092022Y-103425188D01*
X169084408Y-103439132D01*
X168354356Y-103439132D01*
X168355592Y-103436868D01*
X168355461Y-103435035D01*
X168351210Y-103428420D01*
X167645713Y-102722923D01*
X167633938Y-102716493D01*
X167621923Y-102725789D01*
X167586069Y-102776994D01*
X167580586Y-102786489D01*
X167488510Y-102983947D01*
X167484764Y-102994239D01*
X167428375Y-103204688D01*
X167426472Y-103215481D01*
X167407483Y-103432525D01*
X167407483Y-103443475D01*
X165033019Y-103443475D01*
X165033498Y-103438000D01*
X165013543Y-103209913D01*
X165001614Y-103165393D01*
X164955707Y-102994067D01*
X164955706Y-102994065D01*
X164954284Y-102988757D01*
X164928646Y-102933775D01*
X164859849Y-102786238D01*
X164859846Y-102786233D01*
X164857523Y-102781251D01*
X164726198Y-102593700D01*
X164564300Y-102431802D01*
X164559792Y-102428645D01*
X164559789Y-102428643D01*
X164448886Y-102350988D01*
X167998576Y-102350988D01*
X168005644Y-102364434D01*
X168707188Y-103065978D01*
X168721132Y-103073592D01*
X168722965Y-103073461D01*
X168729580Y-103069210D01*
X169435077Y-102363713D01*
X169441507Y-102351938D01*
X169432211Y-102339923D01*
X169381006Y-102304069D01*
X169371511Y-102298586D01*
X169174053Y-102206510D01*
X169163761Y-102202764D01*
X168953312Y-102146375D01*
X168942519Y-102144472D01*
X168725475Y-102125483D01*
X168714525Y-102125483D01*
X168497481Y-102144472D01*
X168486688Y-102146375D01*
X168276239Y-102202764D01*
X168265947Y-102206510D01*
X168068489Y-102298586D01*
X168058994Y-102304069D01*
X168006952Y-102340509D01*
X167998576Y-102350988D01*
X164448886Y-102350988D01*
X164433920Y-102340509D01*
X164376749Y-102300477D01*
X164371767Y-102298154D01*
X164371762Y-102298151D01*
X164174225Y-102206039D01*
X164174224Y-102206039D01*
X164169243Y-102203716D01*
X164163935Y-102202294D01*
X164163933Y-102202293D01*
X163953402Y-102145881D01*
X163953400Y-102145881D01*
X163948087Y-102144457D01*
X163720000Y-102124502D01*
X163491913Y-102144457D01*
X163486600Y-102145881D01*
X163486598Y-102145881D01*
X163276067Y-102202293D01*
X163276065Y-102202294D01*
X163270757Y-102203716D01*
X163265776Y-102206039D01*
X163265775Y-102206039D01*
X163068238Y-102298151D01*
X163068233Y-102298154D01*
X163063251Y-102300477D01*
X163006080Y-102340509D01*
X162880211Y-102428643D01*
X162880208Y-102428645D01*
X162875700Y-102431802D01*
X162713802Y-102593700D01*
X162710645Y-102598208D01*
X162710643Y-102598211D01*
X162625718Y-102719496D01*
X162570261Y-102763824D01*
X162499641Y-102771133D01*
X162436281Y-102739102D01*
X162419292Y-102719496D01*
X162299357Y-102548211D01*
X162299355Y-102548208D01*
X162296198Y-102543700D01*
X162134300Y-102381802D01*
X162129792Y-102378645D01*
X162129789Y-102378643D01*
X162018156Y-102300477D01*
X161946749Y-102250477D01*
X161941767Y-102248154D01*
X161941762Y-102248151D01*
X161744225Y-102156039D01*
X161744224Y-102156039D01*
X161739243Y-102153716D01*
X161733935Y-102152294D01*
X161733933Y-102152293D01*
X161523402Y-102095881D01*
X161523400Y-102095881D01*
X161518087Y-102094457D01*
X161290000Y-102074502D01*
X161061913Y-102094457D01*
X161056600Y-102095881D01*
X161056598Y-102095881D01*
X160846067Y-102152293D01*
X160846065Y-102152294D01*
X160840757Y-102153716D01*
X160835776Y-102156039D01*
X160835775Y-102156039D01*
X160638238Y-102248151D01*
X160638233Y-102248154D01*
X160633251Y-102250477D01*
X160561844Y-102300477D01*
X160450211Y-102378643D01*
X160450208Y-102378645D01*
X160445700Y-102381802D01*
X160283802Y-102543700D01*
X160280645Y-102548208D01*
X160280643Y-102548211D01*
X160245633Y-102598211D01*
X160152477Y-102731251D01*
X160150154Y-102736233D01*
X160150151Y-102736238D01*
X160126836Y-102786238D01*
X160055716Y-102938757D01*
X160054294Y-102944065D01*
X160054293Y-102944067D01*
X160021627Y-103065978D01*
X159996457Y-103159913D01*
X159976502Y-103388000D01*
X159996457Y-103616087D01*
X159997881Y-103621400D01*
X159997881Y-103621402D01*
X160011255Y-103671312D01*
X160055716Y-103837243D01*
X160058039Y-103842224D01*
X160058039Y-103842225D01*
X160150151Y-104039762D01*
X160150154Y-104039767D01*
X160152477Y-104044749D01*
X160225902Y-104149611D01*
X160232774Y-104159424D01*
X160283802Y-104232300D01*
X160445700Y-104394198D01*
X160450208Y-104397355D01*
X160450211Y-104397357D01*
X160491542Y-104426297D01*
X160633251Y-104525523D01*
X160638233Y-104527846D01*
X160638238Y-104527849D01*
X160672457Y-104543805D01*
X160725742Y-104590722D01*
X160745203Y-104658999D01*
X160724661Y-104726959D01*
X160672457Y-104772195D01*
X160638238Y-104788151D01*
X160638233Y-104788154D01*
X160633251Y-104790477D01*
X160549019Y-104849457D01*
X160450211Y-104918643D01*
X160450208Y-104918645D01*
X160445700Y-104921802D01*
X160283802Y-105083700D01*
X160152477Y-105271251D01*
X160150154Y-105276233D01*
X160150151Y-105276238D01*
X160118266Y-105344617D01*
X160055716Y-105478757D01*
X160054294Y-105484065D01*
X160054293Y-105484067D01*
X160008929Y-105653367D01*
X159996457Y-105699913D01*
X159976502Y-105928000D01*
X159996457Y-106156087D01*
X159997881Y-106161400D01*
X159997881Y-106161402D01*
X160046792Y-106343937D01*
X160055716Y-106377243D01*
X160058039Y-106382224D01*
X160058039Y-106382225D01*
X160150151Y-106579762D01*
X160150154Y-106579767D01*
X160152477Y-106584749D01*
X160201261Y-106654420D01*
X160264228Y-106744345D01*
X160283802Y-106772300D01*
X160445700Y-106934198D01*
X160450208Y-106937355D01*
X160450211Y-106937357D01*
X160467589Y-106949525D01*
X160633251Y-107065523D01*
X160638233Y-107067846D01*
X160638238Y-107067849D01*
X160672457Y-107083805D01*
X160725742Y-107130722D01*
X160745203Y-107198999D01*
X160724661Y-107266959D01*
X160672457Y-107312195D01*
X160638238Y-107328151D01*
X160638233Y-107328154D01*
X160633251Y-107330477D01*
X160569820Y-107374892D01*
X160450211Y-107458643D01*
X160450208Y-107458645D01*
X160445700Y-107461802D01*
X160283802Y-107623700D01*
X160280645Y-107628208D01*
X160280643Y-107628211D01*
X160237445Y-107689905D01*
X160152477Y-107811251D01*
X160150154Y-107816233D01*
X160150151Y-107816238D01*
X160072425Y-107982924D01*
X160055716Y-108018757D01*
X160054294Y-108024065D01*
X160054293Y-108024067D01*
X159997881Y-108234598D01*
X159996457Y-108239913D01*
X159976502Y-108468000D01*
X154983498Y-108468000D01*
X154963543Y-108239913D01*
X154962119Y-108234598D01*
X154905707Y-108024067D01*
X154905706Y-108024065D01*
X154904284Y-108018757D01*
X154887575Y-107982924D01*
X154809849Y-107816238D01*
X154809846Y-107816233D01*
X154807523Y-107811251D01*
X154722555Y-107689905D01*
X154679357Y-107628211D01*
X154679355Y-107628208D01*
X154676198Y-107623700D01*
X154514300Y-107461802D01*
X154509792Y-107458645D01*
X154509789Y-107458643D01*
X154390180Y-107374892D01*
X154326749Y-107330477D01*
X154321767Y-107328154D01*
X154321762Y-107328151D01*
X154287543Y-107312195D01*
X154234258Y-107265278D01*
X154214797Y-107197001D01*
X154235339Y-107129041D01*
X154287543Y-107083805D01*
X154321762Y-107067849D01*
X154321767Y-107067846D01*
X154326749Y-107065523D01*
X154492411Y-106949525D01*
X154509789Y-106937357D01*
X154509792Y-106937355D01*
X154514300Y-106934198D01*
X154676198Y-106772300D01*
X154695773Y-106744345D01*
X154758739Y-106654420D01*
X154807523Y-106584749D01*
X154809846Y-106579767D01*
X154809849Y-106579762D01*
X154901961Y-106382225D01*
X154901961Y-106382224D01*
X154904284Y-106377243D01*
X154913209Y-106343937D01*
X154962119Y-106161402D01*
X154962119Y-106161400D01*
X154963543Y-106156087D01*
X154983498Y-105928000D01*
X154963543Y-105699913D01*
X154951071Y-105653367D01*
X154905707Y-105484067D01*
X154905706Y-105484065D01*
X154904284Y-105478757D01*
X154841734Y-105344617D01*
X154809849Y-105276238D01*
X154809846Y-105276233D01*
X154807523Y-105271251D01*
X154676198Y-105083700D01*
X154514300Y-104921802D01*
X154509789Y-104918643D01*
X154505576Y-104915108D01*
X154506527Y-104913974D01*
X154466529Y-104863929D01*
X154459224Y-104793310D01*
X154491258Y-104729951D01*
X154552462Y-104693970D01*
X154569517Y-104690918D01*
X154580316Y-104689745D01*
X154716705Y-104638615D01*
X154833261Y-104551261D01*
X154920615Y-104434705D01*
X154971745Y-104298316D01*
X154978500Y-104236134D01*
X154978500Y-102539866D01*
X154971745Y-102477684D01*
X154920615Y-102341295D01*
X154833261Y-102224739D01*
X154716705Y-102137385D01*
X154580316Y-102086255D01*
X154518134Y-102079500D01*
X152821866Y-102079500D01*
X152759684Y-102086255D01*
X152623295Y-102137385D01*
X152506739Y-102224739D01*
X152419385Y-102341295D01*
X152368255Y-102477684D01*
X152361500Y-102539866D01*
X152361500Y-104236134D01*
X152368255Y-104298316D01*
X152419385Y-104434705D01*
X152506739Y-104551261D01*
X152623295Y-104638615D01*
X152759684Y-104689745D01*
X152770474Y-104690917D01*
X152772606Y-104691803D01*
X152775222Y-104692425D01*
X152775121Y-104692848D01*
X152836035Y-104718155D01*
X152876463Y-104776517D01*
X152878922Y-104847471D01*
X152842629Y-104908490D01*
X152833969Y-104915489D01*
X152830207Y-104918646D01*
X152825700Y-104921802D01*
X152663802Y-105083700D01*
X152532477Y-105271251D01*
X152530154Y-105276233D01*
X152530151Y-105276238D01*
X152498266Y-105344617D01*
X152435716Y-105478757D01*
X152434294Y-105484065D01*
X152434293Y-105484067D01*
X152388929Y-105653367D01*
X152376457Y-105699913D01*
X152356502Y-105928000D01*
X152376457Y-106156087D01*
X152377881Y-106161400D01*
X152377881Y-106161402D01*
X152426792Y-106343937D01*
X152435716Y-106377243D01*
X152438039Y-106382224D01*
X152438039Y-106382225D01*
X152530151Y-106579762D01*
X152530154Y-106579767D01*
X152532477Y-106584749D01*
X152581261Y-106654420D01*
X152644228Y-106744345D01*
X152663802Y-106772300D01*
X152825700Y-106934198D01*
X152830208Y-106937355D01*
X152830211Y-106937357D01*
X152847589Y-106949525D01*
X153013251Y-107065523D01*
X153018233Y-107067846D01*
X153018238Y-107067849D01*
X153052457Y-107083805D01*
X153105742Y-107130722D01*
X153125203Y-107198999D01*
X153104661Y-107266959D01*
X153052457Y-107312195D01*
X153018238Y-107328151D01*
X153018233Y-107328154D01*
X153013251Y-107330477D01*
X152949820Y-107374892D01*
X152830211Y-107458643D01*
X152830208Y-107458645D01*
X152825700Y-107461802D01*
X152663802Y-107623700D01*
X152660645Y-107628208D01*
X152660643Y-107628211D01*
X152617445Y-107689905D01*
X152532477Y-107811251D01*
X152530154Y-107816233D01*
X152530151Y-107816238D01*
X152452425Y-107982924D01*
X152435716Y-108018757D01*
X152434294Y-108024065D01*
X152434293Y-108024067D01*
X152377881Y-108234598D01*
X152376457Y-108239913D01*
X152356502Y-108468000D01*
X152376457Y-108696087D01*
X152377881Y-108701400D01*
X152377881Y-108701402D01*
X152421889Y-108865639D01*
X152435716Y-108917243D01*
X152438039Y-108922224D01*
X152438039Y-108922225D01*
X152530151Y-109119762D01*
X152530154Y-109119767D01*
X152532477Y-109124749D01*
X152535634Y-109129257D01*
X152653480Y-109297558D01*
X152663802Y-109312300D01*
X152825700Y-109474198D01*
X152830208Y-109477355D01*
X152830211Y-109477357D01*
X152861368Y-109499173D01*
X153013251Y-109605523D01*
X153018233Y-109607846D01*
X153018238Y-109607849D01*
X153052457Y-109623805D01*
X153105742Y-109670722D01*
X153125203Y-109738999D01*
X153104661Y-109806959D01*
X153052457Y-109852195D01*
X153018238Y-109868151D01*
X153018233Y-109868154D01*
X153013251Y-109870477D01*
X152932807Y-109926805D01*
X152830211Y-109998643D01*
X152830208Y-109998645D01*
X152825700Y-110001802D01*
X152663802Y-110163700D01*
X152532477Y-110351251D01*
X152530154Y-110356233D01*
X152530151Y-110356238D01*
X152530034Y-110356489D01*
X152435716Y-110558757D01*
X152376457Y-110779913D01*
X152356502Y-111008000D01*
X141732000Y-111008000D01*
X141732000Y-110996444D01*
X141732415Y-110986229D01*
X141736126Y-110940600D01*
X141736308Y-110938366D01*
X141736896Y-110882176D01*
X141732228Y-110804747D01*
X141732000Y-110797165D01*
X141732000Y-108424695D01*
X142655251Y-108424695D01*
X142655548Y-108429848D01*
X142655548Y-108429851D01*
X142661011Y-108524590D01*
X142668110Y-108647715D01*
X142669247Y-108652761D01*
X142669248Y-108652767D01*
X142680209Y-108701402D01*
X142717222Y-108865639D01*
X142801266Y-109072616D01*
X142826899Y-109114446D01*
X142879807Y-109200783D01*
X142917987Y-109263088D01*
X143064250Y-109431938D01*
X143236126Y-109574632D01*
X143429000Y-109687338D01*
X143433825Y-109689180D01*
X143433826Y-109689181D01*
X143480068Y-109706839D01*
X143637692Y-109767030D01*
X143642760Y-109768061D01*
X143642763Y-109768062D01*
X143708804Y-109781498D01*
X143856597Y-109811567D01*
X143861772Y-109811757D01*
X143861774Y-109811757D01*
X144074673Y-109819564D01*
X144074677Y-109819564D01*
X144079837Y-109819753D01*
X144084957Y-109819097D01*
X144084959Y-109819097D01*
X144296288Y-109792025D01*
X144296289Y-109792025D01*
X144301416Y-109791368D01*
X144314442Y-109787460D01*
X144510429Y-109728661D01*
X144510434Y-109728659D01*
X144515384Y-109727174D01*
X144715994Y-109628896D01*
X144897860Y-109499173D01*
X144919753Y-109477357D01*
X144996211Y-109401165D01*
X145056096Y-109341489D01*
X145070386Y-109321603D01*
X145183435Y-109164277D01*
X145186453Y-109160077D01*
X145204148Y-109124275D01*
X145283136Y-108964453D01*
X145283137Y-108964451D01*
X145285430Y-108959811D01*
X145350370Y-108746069D01*
X145357620Y-108691000D01*
X146360884Y-108691000D01*
X146379314Y-108901655D01*
X146380738Y-108906968D01*
X146380738Y-108906970D01*
X146397568Y-108969778D01*
X146434044Y-109105910D01*
X146436366Y-109110891D01*
X146436367Y-109110892D01*
X146520556Y-109291435D01*
X146523411Y-109297558D01*
X146644699Y-109470776D01*
X146794224Y-109620301D01*
X146967442Y-109741589D01*
X146972420Y-109743910D01*
X146972423Y-109743912D01*
X147135065Y-109819753D01*
X147159090Y-109830956D01*
X147164398Y-109832378D01*
X147164400Y-109832379D01*
X147358030Y-109884262D01*
X147358032Y-109884262D01*
X147363345Y-109885686D01*
X147574000Y-109904116D01*
X147784655Y-109885686D01*
X147789968Y-109884262D01*
X147789970Y-109884262D01*
X147983600Y-109832379D01*
X147983602Y-109832378D01*
X147988910Y-109830956D01*
X148012935Y-109819753D01*
X148175577Y-109743912D01*
X148175580Y-109743910D01*
X148180558Y-109741589D01*
X148353776Y-109620301D01*
X148503301Y-109470776D01*
X148624589Y-109297558D01*
X148627445Y-109291435D01*
X148711633Y-109110892D01*
X148711634Y-109110891D01*
X148713956Y-109105910D01*
X148750433Y-108969778D01*
X148767262Y-108906970D01*
X148767262Y-108906968D01*
X148768686Y-108901655D01*
X148787116Y-108691000D01*
X148782189Y-108634686D01*
X149076502Y-108634686D01*
X149096457Y-108862773D01*
X149097881Y-108868086D01*
X149097881Y-108868088D01*
X149152685Y-109072616D01*
X149155716Y-109083929D01*
X149158039Y-109088910D01*
X149158039Y-109088911D01*
X149250151Y-109286448D01*
X149250154Y-109286453D01*
X149252477Y-109291435D01*
X149290080Y-109345137D01*
X149377721Y-109470301D01*
X149383802Y-109478986D01*
X149545700Y-109640884D01*
X149550208Y-109644041D01*
X149550211Y-109644043D01*
X149585912Y-109669041D01*
X149733251Y-109772209D01*
X149738233Y-109774532D01*
X149738238Y-109774535D01*
X149935775Y-109866647D01*
X149940757Y-109868970D01*
X149946065Y-109870392D01*
X149946067Y-109870393D01*
X150156598Y-109926805D01*
X150156600Y-109926805D01*
X150161913Y-109928229D01*
X150390000Y-109948184D01*
X150618087Y-109928229D01*
X150623400Y-109926805D01*
X150623402Y-109926805D01*
X150833933Y-109870393D01*
X150833935Y-109870392D01*
X150839243Y-109868970D01*
X150844225Y-109866647D01*
X151041762Y-109774535D01*
X151041767Y-109774532D01*
X151046749Y-109772209D01*
X151194088Y-109669041D01*
X151229789Y-109644043D01*
X151229792Y-109644041D01*
X151234300Y-109640884D01*
X151396198Y-109478986D01*
X151402280Y-109470301D01*
X151489920Y-109345137D01*
X151527523Y-109291435D01*
X151529846Y-109286453D01*
X151529849Y-109286448D01*
X151621961Y-109088911D01*
X151621961Y-109088910D01*
X151624284Y-109083929D01*
X151627316Y-109072616D01*
X151682119Y-108868088D01*
X151682119Y-108868086D01*
X151683543Y-108862773D01*
X151703498Y-108634686D01*
X151683543Y-108406599D01*
X151675696Y-108377312D01*
X151625707Y-108190753D01*
X151625706Y-108190751D01*
X151624284Y-108185443D01*
X151621961Y-108180461D01*
X151529849Y-107982924D01*
X151529846Y-107982919D01*
X151527523Y-107977937D01*
X151409576Y-107809492D01*
X151399357Y-107794897D01*
X151399355Y-107794894D01*
X151396198Y-107790386D01*
X151234300Y-107628488D01*
X151229789Y-107625329D01*
X151225576Y-107621794D01*
X151226527Y-107620660D01*
X151186529Y-107570615D01*
X151179224Y-107499996D01*
X151211258Y-107436637D01*
X151272462Y-107400656D01*
X151289517Y-107397604D01*
X151300316Y-107396431D01*
X151436705Y-107345301D01*
X151553261Y-107257947D01*
X151640615Y-107141391D01*
X151691745Y-107005002D01*
X151698500Y-106942820D01*
X151698500Y-105246552D01*
X151691745Y-105184370D01*
X151640615Y-105047981D01*
X151553261Y-104931425D01*
X151436705Y-104844071D01*
X151300316Y-104792941D01*
X151238134Y-104786186D01*
X149541866Y-104786186D01*
X149479684Y-104792941D01*
X149343295Y-104844071D01*
X149226739Y-104931425D01*
X149139385Y-105047981D01*
X149088255Y-105184370D01*
X149081500Y-105246552D01*
X149081500Y-106942820D01*
X149088255Y-107005002D01*
X149139385Y-107141391D01*
X149226739Y-107257947D01*
X149343295Y-107345301D01*
X149479684Y-107396431D01*
X149490474Y-107397603D01*
X149492606Y-107398489D01*
X149495222Y-107399111D01*
X149495121Y-107399534D01*
X149556035Y-107424841D01*
X149596463Y-107483203D01*
X149598922Y-107554157D01*
X149562629Y-107615176D01*
X149553969Y-107622175D01*
X149550207Y-107625332D01*
X149545700Y-107628488D01*
X149383802Y-107790386D01*
X149380645Y-107794894D01*
X149380643Y-107794897D01*
X149370424Y-107809492D01*
X149252477Y-107977937D01*
X149250154Y-107982919D01*
X149250151Y-107982924D01*
X149158039Y-108180461D01*
X149155716Y-108185443D01*
X149154294Y-108190751D01*
X149154293Y-108190753D01*
X149104304Y-108377312D01*
X149096457Y-108406599D01*
X149076502Y-108634686D01*
X148782189Y-108634686D01*
X148768686Y-108480345D01*
X148747502Y-108401284D01*
X148715379Y-108281400D01*
X148715378Y-108281398D01*
X148713956Y-108276090D01*
X148711633Y-108271108D01*
X148626912Y-108089423D01*
X148626910Y-108089420D01*
X148624589Y-108084442D01*
X148503301Y-107911224D01*
X148422172Y-107830095D01*
X148388146Y-107767783D01*
X148393211Y-107696968D01*
X148422172Y-107651905D01*
X148503301Y-107570776D01*
X148624589Y-107397558D01*
X148631186Y-107383412D01*
X148711633Y-107210892D01*
X148711634Y-107210891D01*
X148713956Y-107205910D01*
X148716076Y-107198000D01*
X148767262Y-107006970D01*
X148767262Y-107006968D01*
X148768686Y-107001655D01*
X148787116Y-106791000D01*
X148768686Y-106580345D01*
X148713956Y-106376090D01*
X148624589Y-106184442D01*
X148503301Y-106011224D01*
X148353776Y-105861699D01*
X148180558Y-105740411D01*
X148175580Y-105738090D01*
X148175577Y-105738088D01*
X147993892Y-105653367D01*
X147993891Y-105653366D01*
X147988910Y-105651044D01*
X147983602Y-105649622D01*
X147983600Y-105649621D01*
X147789970Y-105597738D01*
X147789968Y-105597738D01*
X147784655Y-105596314D01*
X147574000Y-105577884D01*
X147363345Y-105596314D01*
X147358032Y-105597738D01*
X147358030Y-105597738D01*
X147164400Y-105649621D01*
X147164398Y-105649622D01*
X147159090Y-105651044D01*
X147154109Y-105653366D01*
X147154108Y-105653367D01*
X146972423Y-105738088D01*
X146972420Y-105738090D01*
X146967442Y-105740411D01*
X146794224Y-105861699D01*
X146644699Y-106011224D01*
X146523411Y-106184442D01*
X146434044Y-106376090D01*
X146379314Y-106580345D01*
X146360884Y-106791000D01*
X146379314Y-107001655D01*
X146380738Y-107006968D01*
X146380738Y-107006970D01*
X146431925Y-107198000D01*
X146434044Y-107205910D01*
X146436366Y-107210891D01*
X146436367Y-107210892D01*
X146516815Y-107383412D01*
X146523411Y-107397558D01*
X146644699Y-107570776D01*
X146725828Y-107651905D01*
X146759854Y-107714217D01*
X146754789Y-107785032D01*
X146725828Y-107830095D01*
X146644699Y-107911224D01*
X146523411Y-108084442D01*
X146521090Y-108089420D01*
X146521088Y-108089423D01*
X146436367Y-108271108D01*
X146434044Y-108276090D01*
X146432622Y-108281398D01*
X146432621Y-108281400D01*
X146400498Y-108401284D01*
X146379314Y-108480345D01*
X146360884Y-108691000D01*
X145357620Y-108691000D01*
X145379529Y-108524590D01*
X145380778Y-108473475D01*
X145381074Y-108461365D01*
X145381074Y-108461361D01*
X145381156Y-108458000D01*
X145362852Y-108235361D01*
X145308431Y-108018702D01*
X145219354Y-107813840D01*
X145158841Y-107720301D01*
X145100822Y-107630617D01*
X145100820Y-107630614D01*
X145098014Y-107626277D01*
X145094532Y-107622450D01*
X144950798Y-107464488D01*
X144919746Y-107400642D01*
X144928141Y-107330143D01*
X144973317Y-107275375D01*
X144999761Y-107261706D01*
X145106297Y-107221767D01*
X145114705Y-107218615D01*
X145231261Y-107131261D01*
X145318615Y-107014705D01*
X145369745Y-106878316D01*
X145376500Y-106816134D01*
X145376500Y-105019866D01*
X145369745Y-104957684D01*
X145318615Y-104821295D01*
X145231261Y-104704739D01*
X145114705Y-104617385D01*
X144978316Y-104566255D01*
X144916134Y-104559500D01*
X143119866Y-104559500D01*
X143057684Y-104566255D01*
X142921295Y-104617385D01*
X142804739Y-104704739D01*
X142717385Y-104821295D01*
X142666255Y-104957684D01*
X142659500Y-105019866D01*
X142659500Y-106816134D01*
X142666255Y-106878316D01*
X142717385Y-107014705D01*
X142804739Y-107131261D01*
X142921295Y-107218615D01*
X142929704Y-107221767D01*
X142929705Y-107221768D01*
X143038451Y-107262535D01*
X143095216Y-107305176D01*
X143119916Y-107371738D01*
X143104709Y-107441087D01*
X143085316Y-107467568D01*
X143000287Y-107556546D01*
X142958629Y-107600138D01*
X142955715Y-107604410D01*
X142955714Y-107604411D01*
X142923316Y-107651905D01*
X142832743Y-107784680D01*
X142790002Y-107876757D01*
X142756454Y-107949032D01*
X142738688Y-107987305D01*
X142678989Y-108202570D01*
X142655251Y-108424695D01*
X141732000Y-108424695D01*
X141732000Y-99563000D01*
X142273835Y-99563000D01*
X142292465Y-99799711D01*
X142293619Y-99804518D01*
X142293620Y-99804524D01*
X142298770Y-99825973D01*
X142347895Y-100030594D01*
X142349788Y-100035165D01*
X142349789Y-100035167D01*
X142412595Y-100186794D01*
X142438760Y-100249963D01*
X142441346Y-100254183D01*
X142560241Y-100448202D01*
X142560245Y-100448208D01*
X142562824Y-100452416D01*
X142717031Y-100632969D01*
X142897584Y-100787176D01*
X142901792Y-100789755D01*
X142901798Y-100789759D01*
X143085600Y-100902393D01*
X143100037Y-100911240D01*
X143104607Y-100913133D01*
X143104611Y-100913135D01*
X143314833Y-101000211D01*
X143319406Y-101002105D01*
X143399609Y-101021360D01*
X143545476Y-101056380D01*
X143545482Y-101056381D01*
X143550289Y-101057535D01*
X143787000Y-101076165D01*
X144023711Y-101057535D01*
X144028518Y-101056381D01*
X144028524Y-101056380D01*
X144174391Y-101021360D01*
X144254594Y-101002105D01*
X144259167Y-101000211D01*
X144469389Y-100913135D01*
X144469393Y-100913133D01*
X144473963Y-100911240D01*
X144488400Y-100902393D01*
X144672202Y-100789759D01*
X144672208Y-100789755D01*
X144676416Y-100787176D01*
X144856969Y-100632969D01*
X145011176Y-100452416D01*
X145013755Y-100448208D01*
X145013759Y-100448202D01*
X145132654Y-100254183D01*
X145135240Y-100249963D01*
X145161406Y-100186794D01*
X145224211Y-100035167D01*
X145224212Y-100035165D01*
X145226105Y-100030594D01*
X145275230Y-99825973D01*
X145280380Y-99804524D01*
X145280381Y-99804518D01*
X145281535Y-99799711D01*
X145300165Y-99563000D01*
X147353835Y-99563000D01*
X147372465Y-99799711D01*
X147373619Y-99804518D01*
X147373620Y-99804524D01*
X147378770Y-99825973D01*
X147427895Y-100030594D01*
X147429788Y-100035165D01*
X147429789Y-100035167D01*
X147492595Y-100186794D01*
X147518760Y-100249963D01*
X147521346Y-100254183D01*
X147640241Y-100448202D01*
X147640245Y-100448208D01*
X147642824Y-100452416D01*
X147797031Y-100632969D01*
X147977584Y-100787176D01*
X147981792Y-100789755D01*
X147981798Y-100789759D01*
X148165600Y-100902393D01*
X148180037Y-100911240D01*
X148184607Y-100913133D01*
X148184611Y-100913135D01*
X148394833Y-101000211D01*
X148399406Y-101002105D01*
X148479609Y-101021360D01*
X148625476Y-101056380D01*
X148625482Y-101056381D01*
X148630289Y-101057535D01*
X148867000Y-101076165D01*
X149103711Y-101057535D01*
X149108518Y-101056381D01*
X149108524Y-101056380D01*
X149254391Y-101021360D01*
X149334594Y-101002105D01*
X149339167Y-101000211D01*
X149549389Y-100913135D01*
X149549393Y-100913133D01*
X149553963Y-100911240D01*
X149568400Y-100902393D01*
X149752202Y-100789759D01*
X149752208Y-100789755D01*
X149756416Y-100787176D01*
X149936969Y-100632969D01*
X150091176Y-100452416D01*
X150093755Y-100448208D01*
X150093759Y-100448202D01*
X150212654Y-100254183D01*
X150215240Y-100249963D01*
X150241406Y-100186794D01*
X150304211Y-100035167D01*
X150304212Y-100035165D01*
X150306105Y-100030594D01*
X150352831Y-99835966D01*
X154116257Y-99835966D01*
X154146565Y-99970446D01*
X154149645Y-99980275D01*
X154229770Y-100177603D01*
X154234413Y-100186794D01*
X154345694Y-100368388D01*
X154351777Y-100376699D01*
X154491213Y-100537667D01*
X154498580Y-100544883D01*
X154662434Y-100680916D01*
X154670881Y-100686831D01*
X154854756Y-100794279D01*
X154864042Y-100798729D01*
X155063001Y-100874703D01*
X155072899Y-100877579D01*
X155176250Y-100898606D01*
X155190299Y-100897410D01*
X155194000Y-100887065D01*
X155194000Y-100886517D01*
X155702000Y-100886517D01*
X155706064Y-100900359D01*
X155719478Y-100902393D01*
X155726184Y-100901534D01*
X155736262Y-100899392D01*
X155940255Y-100838191D01*
X155949842Y-100834433D01*
X156141095Y-100740739D01*
X156149945Y-100735464D01*
X156323328Y-100611792D01*
X156331193Y-100605145D01*
X156435897Y-100500805D01*
X156498268Y-100466889D01*
X156569075Y-100472077D01*
X156625837Y-100514723D01*
X156642819Y-100545826D01*
X156651994Y-100570301D01*
X156687385Y-100664705D01*
X156774739Y-100781261D01*
X156891295Y-100868615D01*
X157027684Y-100919745D01*
X157089866Y-100926500D01*
X158886134Y-100926500D01*
X158948316Y-100919745D01*
X159084705Y-100868615D01*
X159201261Y-100781261D01*
X159288615Y-100664705D01*
X159339745Y-100528316D01*
X159346500Y-100466134D01*
X159346500Y-99568000D01*
X159802502Y-99568000D01*
X159822457Y-99796087D01*
X159823881Y-99801400D01*
X159823881Y-99801402D01*
X159866209Y-99959369D01*
X159881716Y-100017243D01*
X159884039Y-100022224D01*
X159884039Y-100022225D01*
X159976151Y-100219762D01*
X159976154Y-100219767D01*
X159978477Y-100224749D01*
X160109802Y-100412300D01*
X160271700Y-100574198D01*
X160276208Y-100577355D01*
X160276211Y-100577357D01*
X160325931Y-100612171D01*
X160459251Y-100705523D01*
X160464233Y-100707846D01*
X160464238Y-100707849D01*
X160661775Y-100799961D01*
X160666757Y-100802284D01*
X160672065Y-100803706D01*
X160672067Y-100803707D01*
X160882598Y-100860119D01*
X160882600Y-100860119D01*
X160887913Y-100861543D01*
X161116000Y-100881498D01*
X161344087Y-100861543D01*
X161349400Y-100860119D01*
X161349402Y-100860119D01*
X161559933Y-100803707D01*
X161559935Y-100803706D01*
X161565243Y-100802284D01*
X161570225Y-100799961D01*
X161767762Y-100707849D01*
X161767767Y-100707846D01*
X161772749Y-100705523D01*
X161906069Y-100612171D01*
X161955789Y-100577357D01*
X161955792Y-100577355D01*
X161960300Y-100574198D01*
X162122198Y-100412300D01*
X162253523Y-100224749D01*
X162255846Y-100219767D01*
X162255849Y-100219762D01*
X162347961Y-100022225D01*
X162347961Y-100022224D01*
X162350284Y-100017243D01*
X162365792Y-99959369D01*
X162408119Y-99801402D01*
X162408119Y-99801400D01*
X162409543Y-99796087D01*
X162429498Y-99568000D01*
X164802502Y-99568000D01*
X164822457Y-99796087D01*
X164823881Y-99801400D01*
X164823881Y-99801402D01*
X164866209Y-99959369D01*
X164881716Y-100017243D01*
X164884039Y-100022224D01*
X164884039Y-100022225D01*
X164976151Y-100219762D01*
X164976154Y-100219767D01*
X164978477Y-100224749D01*
X165109802Y-100412300D01*
X165271700Y-100574198D01*
X165276208Y-100577355D01*
X165276211Y-100577357D01*
X165325931Y-100612171D01*
X165459251Y-100705523D01*
X165464233Y-100707846D01*
X165464238Y-100707849D01*
X165661775Y-100799961D01*
X165666757Y-100802284D01*
X165672065Y-100803706D01*
X165672067Y-100803707D01*
X165882598Y-100860119D01*
X165882600Y-100860119D01*
X165887913Y-100861543D01*
X166116000Y-100881498D01*
X166344087Y-100861543D01*
X166349400Y-100860119D01*
X166349402Y-100860119D01*
X166559933Y-100803707D01*
X166559935Y-100803706D01*
X166565243Y-100802284D01*
X166570225Y-100799961D01*
X166767762Y-100707849D01*
X166767767Y-100707846D01*
X166772749Y-100705523D01*
X166906069Y-100612171D01*
X166955789Y-100577357D01*
X166955792Y-100577355D01*
X166960300Y-100574198D01*
X167122198Y-100412300D01*
X167253523Y-100224749D01*
X167255846Y-100219767D01*
X167255849Y-100219762D01*
X167347961Y-100022225D01*
X167347961Y-100022224D01*
X167350284Y-100017243D01*
X167365792Y-99959369D01*
X167408119Y-99801402D01*
X167408119Y-99801400D01*
X167409543Y-99796087D01*
X167429498Y-99568000D01*
X167409543Y-99339913D01*
X167407215Y-99331223D01*
X167351707Y-99124067D01*
X167351706Y-99124065D01*
X167350284Y-99118757D01*
X167322935Y-99060106D01*
X167255849Y-98916238D01*
X167255846Y-98916233D01*
X167253523Y-98911251D01*
X167180098Y-98806389D01*
X167125357Y-98728211D01*
X167125355Y-98728208D01*
X167122198Y-98723700D01*
X166960300Y-98561802D01*
X166955792Y-98558645D01*
X166955789Y-98558643D01*
X166862085Y-98493031D01*
X166772749Y-98430477D01*
X166767767Y-98428154D01*
X166767762Y-98428151D01*
X166570225Y-98336039D01*
X166570224Y-98336039D01*
X166565243Y-98333716D01*
X166559935Y-98332294D01*
X166559933Y-98332293D01*
X166349402Y-98275881D01*
X166349400Y-98275881D01*
X166344087Y-98274457D01*
X166116000Y-98254502D01*
X165887913Y-98274457D01*
X165882600Y-98275881D01*
X165882598Y-98275881D01*
X165672067Y-98332293D01*
X165672065Y-98332294D01*
X165666757Y-98333716D01*
X165661776Y-98336039D01*
X165661775Y-98336039D01*
X165464238Y-98428151D01*
X165464233Y-98428154D01*
X165459251Y-98430477D01*
X165369915Y-98493031D01*
X165276211Y-98558643D01*
X165276208Y-98558645D01*
X165271700Y-98561802D01*
X165109802Y-98723700D01*
X165106645Y-98728208D01*
X165106643Y-98728211D01*
X165051902Y-98806389D01*
X164978477Y-98911251D01*
X164976154Y-98916233D01*
X164976151Y-98916238D01*
X164909065Y-99060106D01*
X164881716Y-99118757D01*
X164880294Y-99124065D01*
X164880293Y-99124067D01*
X164824785Y-99331223D01*
X164822457Y-99339913D01*
X164802502Y-99568000D01*
X162429498Y-99568000D01*
X162409543Y-99339913D01*
X162407215Y-99331223D01*
X162351707Y-99124067D01*
X162351706Y-99124065D01*
X162350284Y-99118757D01*
X162322935Y-99060106D01*
X162255849Y-98916238D01*
X162255846Y-98916233D01*
X162253523Y-98911251D01*
X162180098Y-98806389D01*
X162125357Y-98728211D01*
X162125355Y-98728208D01*
X162122198Y-98723700D01*
X161960300Y-98561802D01*
X161955792Y-98558645D01*
X161955789Y-98558643D01*
X161862085Y-98493031D01*
X161772749Y-98430477D01*
X161767767Y-98428154D01*
X161767762Y-98428151D01*
X161570225Y-98336039D01*
X161570224Y-98336039D01*
X161565243Y-98333716D01*
X161559935Y-98332294D01*
X161559933Y-98332293D01*
X161349402Y-98275881D01*
X161349400Y-98275881D01*
X161344087Y-98274457D01*
X161116000Y-98254502D01*
X160887913Y-98274457D01*
X160882600Y-98275881D01*
X160882598Y-98275881D01*
X160672067Y-98332293D01*
X160672065Y-98332294D01*
X160666757Y-98333716D01*
X160661776Y-98336039D01*
X160661775Y-98336039D01*
X160464238Y-98428151D01*
X160464233Y-98428154D01*
X160459251Y-98430477D01*
X160369915Y-98493031D01*
X160276211Y-98558643D01*
X160276208Y-98558645D01*
X160271700Y-98561802D01*
X160109802Y-98723700D01*
X160106645Y-98728208D01*
X160106643Y-98728211D01*
X160051902Y-98806389D01*
X159978477Y-98911251D01*
X159976154Y-98916233D01*
X159976151Y-98916238D01*
X159909065Y-99060106D01*
X159881716Y-99118757D01*
X159880294Y-99124065D01*
X159880293Y-99124067D01*
X159824785Y-99331223D01*
X159822457Y-99339913D01*
X159802502Y-99568000D01*
X159346500Y-99568000D01*
X159346500Y-98669866D01*
X159339745Y-98607684D01*
X159288615Y-98471295D01*
X159201261Y-98354739D01*
X159084705Y-98267385D01*
X158948316Y-98216255D01*
X158886134Y-98209500D01*
X157089866Y-98209500D01*
X157027684Y-98216255D01*
X156891295Y-98267385D01*
X156774739Y-98354739D01*
X156687385Y-98471295D01*
X156684233Y-98479703D01*
X156684232Y-98479705D01*
X156642722Y-98590433D01*
X156600081Y-98647198D01*
X156533519Y-98671898D01*
X156464170Y-98656691D01*
X156431546Y-98631004D01*
X156380799Y-98575234D01*
X156373273Y-98568215D01*
X156206139Y-98436222D01*
X156197552Y-98430517D01*
X156011117Y-98327599D01*
X156001705Y-98323369D01*
X155800959Y-98252280D01*
X155790988Y-98249646D01*
X155719837Y-98236972D01*
X155706540Y-98238432D01*
X155702000Y-98252989D01*
X155702000Y-100886517D01*
X155194000Y-100886517D01*
X155194000Y-99840115D01*
X155189525Y-99824876D01*
X155188135Y-99823671D01*
X155180452Y-99822000D01*
X154131225Y-99822000D01*
X154117694Y-99825973D01*
X154116257Y-99835966D01*
X150352831Y-99835966D01*
X150355230Y-99825973D01*
X150360380Y-99804524D01*
X150360381Y-99804518D01*
X150361535Y-99799711D01*
X150380165Y-99563000D01*
X150361535Y-99326289D01*
X150357771Y-99310607D01*
X150355749Y-99302183D01*
X154112389Y-99302183D01*
X154113912Y-99310607D01*
X154126292Y-99314000D01*
X155175885Y-99314000D01*
X155191124Y-99309525D01*
X155192329Y-99308135D01*
X155194000Y-99300452D01*
X155194000Y-98251102D01*
X155190082Y-98237758D01*
X155175806Y-98235771D01*
X155137324Y-98241660D01*
X155127288Y-98244051D01*
X154924868Y-98310212D01*
X154915359Y-98314209D01*
X154726463Y-98412542D01*
X154717738Y-98418036D01*
X154547433Y-98545905D01*
X154539726Y-98552748D01*
X154392590Y-98706717D01*
X154386104Y-98714727D01*
X154266098Y-98890649D01*
X154261000Y-98899623D01*
X154171338Y-99092783D01*
X154167775Y-99102470D01*
X154112389Y-99302183D01*
X150355749Y-99302183D01*
X150320491Y-99155330D01*
X150306105Y-99095406D01*
X150304211Y-99090833D01*
X150217135Y-98880611D01*
X150217133Y-98880607D01*
X150215240Y-98876037D01*
X150212654Y-98871817D01*
X150093759Y-98677798D01*
X150093755Y-98677792D01*
X150091176Y-98673584D01*
X149936969Y-98493031D01*
X149756416Y-98338824D01*
X149752208Y-98336245D01*
X149752202Y-98336241D01*
X149558183Y-98217346D01*
X149553963Y-98214760D01*
X149549393Y-98212867D01*
X149549389Y-98212865D01*
X149339167Y-98125789D01*
X149339165Y-98125788D01*
X149334594Y-98123895D01*
X149254391Y-98104640D01*
X149108524Y-98069620D01*
X149108518Y-98069619D01*
X149103711Y-98068465D01*
X148867000Y-98049835D01*
X148630289Y-98068465D01*
X148625482Y-98069619D01*
X148625476Y-98069620D01*
X148479609Y-98104640D01*
X148399406Y-98123895D01*
X148394835Y-98125788D01*
X148394833Y-98125789D01*
X148184611Y-98212865D01*
X148184607Y-98212867D01*
X148180037Y-98214760D01*
X148175817Y-98217346D01*
X147981798Y-98336241D01*
X147981792Y-98336245D01*
X147977584Y-98338824D01*
X147797031Y-98493031D01*
X147642824Y-98673584D01*
X147640245Y-98677792D01*
X147640241Y-98677798D01*
X147521346Y-98871817D01*
X147518760Y-98876037D01*
X147516867Y-98880607D01*
X147516865Y-98880611D01*
X147429789Y-99090833D01*
X147427895Y-99095406D01*
X147413509Y-99155330D01*
X147376230Y-99310607D01*
X147372465Y-99326289D01*
X147353835Y-99563000D01*
X145300165Y-99563000D01*
X145281535Y-99326289D01*
X145277771Y-99310607D01*
X145240491Y-99155330D01*
X145226105Y-99095406D01*
X145224211Y-99090833D01*
X145137135Y-98880611D01*
X145137133Y-98880607D01*
X145135240Y-98876037D01*
X145132654Y-98871817D01*
X145013759Y-98677798D01*
X145013755Y-98677792D01*
X145011176Y-98673584D01*
X144856969Y-98493031D01*
X144676416Y-98338824D01*
X144672208Y-98336245D01*
X144672202Y-98336241D01*
X144478183Y-98217346D01*
X144473963Y-98214760D01*
X144469393Y-98212867D01*
X144469389Y-98212865D01*
X144259167Y-98125789D01*
X144259165Y-98125788D01*
X144254594Y-98123895D01*
X144174391Y-98104640D01*
X144028524Y-98069620D01*
X144028518Y-98069619D01*
X144023711Y-98068465D01*
X143787000Y-98049835D01*
X143550289Y-98068465D01*
X143545482Y-98069619D01*
X143545476Y-98069620D01*
X143399609Y-98104640D01*
X143319406Y-98123895D01*
X143314835Y-98125788D01*
X143314833Y-98125789D01*
X143104611Y-98212865D01*
X143104607Y-98212867D01*
X143100037Y-98214760D01*
X143095817Y-98217346D01*
X142901798Y-98336241D01*
X142901792Y-98336245D01*
X142897584Y-98338824D01*
X142717031Y-98493031D01*
X142562824Y-98673584D01*
X142560245Y-98677792D01*
X142560241Y-98677798D01*
X142441346Y-98871817D01*
X142438760Y-98876037D01*
X142436867Y-98880607D01*
X142436865Y-98880611D01*
X142349789Y-99090833D01*
X142347895Y-99095406D01*
X142333509Y-99155330D01*
X142296230Y-99310607D01*
X142292465Y-99326289D01*
X142273835Y-99563000D01*
X141732000Y-99563000D01*
X141732000Y-95531134D01*
X142278500Y-95531134D01*
X142285255Y-95593316D01*
X142336385Y-95729705D01*
X142423739Y-95846261D01*
X142540295Y-95933615D01*
X142676684Y-95984745D01*
X142738866Y-95991500D01*
X144835134Y-95991500D01*
X144897316Y-95984745D01*
X145033705Y-95933615D01*
X145150261Y-95846261D01*
X145237615Y-95729705D01*
X145288745Y-95593316D01*
X145295500Y-95531134D01*
X145295500Y-94483000D01*
X147353835Y-94483000D01*
X147372465Y-94719711D01*
X147373619Y-94724518D01*
X147373620Y-94724524D01*
X147392560Y-94803414D01*
X147427895Y-94950594D01*
X147429788Y-94955165D01*
X147429789Y-94955167D01*
X147510925Y-95151047D01*
X147518760Y-95169963D01*
X147521346Y-95174183D01*
X147640241Y-95368202D01*
X147640245Y-95368208D01*
X147642824Y-95372416D01*
X147797031Y-95552969D01*
X147977584Y-95707176D01*
X147981792Y-95709755D01*
X147981798Y-95709759D01*
X148175817Y-95828654D01*
X148180037Y-95831240D01*
X148184607Y-95833133D01*
X148184611Y-95833135D01*
X148393257Y-95919558D01*
X148399406Y-95922105D01*
X148439206Y-95931660D01*
X148625476Y-95976380D01*
X148625482Y-95976381D01*
X148630289Y-95977535D01*
X148867000Y-95996165D01*
X149103711Y-95977535D01*
X149108518Y-95976381D01*
X149108524Y-95976380D01*
X149294794Y-95931660D01*
X149334594Y-95922105D01*
X149340743Y-95919558D01*
X149549389Y-95833135D01*
X149549393Y-95833133D01*
X149553963Y-95831240D01*
X149558183Y-95828654D01*
X149752202Y-95709759D01*
X149752208Y-95709755D01*
X149756416Y-95707176D01*
X149936969Y-95552969D01*
X149954120Y-95532888D01*
X153626502Y-95532888D01*
X153646457Y-95760975D01*
X153647881Y-95766288D01*
X153647881Y-95766290D01*
X153702964Y-95971859D01*
X153705716Y-95982131D01*
X153708039Y-95987112D01*
X153708039Y-95987113D01*
X153800151Y-96184650D01*
X153800154Y-96184655D01*
X153802477Y-96189637D01*
X153933802Y-96377188D01*
X154095700Y-96539086D01*
X154100208Y-96542243D01*
X154100211Y-96542245D01*
X154178389Y-96596986D01*
X154283251Y-96670411D01*
X154288233Y-96672734D01*
X154288238Y-96672737D01*
X154485775Y-96764849D01*
X154490757Y-96767172D01*
X154496065Y-96768594D01*
X154496067Y-96768595D01*
X154706598Y-96825007D01*
X154706600Y-96825007D01*
X154711913Y-96826431D01*
X154940000Y-96846386D01*
X155168087Y-96826431D01*
X155173400Y-96825007D01*
X155173402Y-96825007D01*
X155383933Y-96768595D01*
X155383935Y-96768594D01*
X155389243Y-96767172D01*
X155394225Y-96764849D01*
X155591762Y-96672737D01*
X155591767Y-96672734D01*
X155596749Y-96670411D01*
X155701611Y-96596986D01*
X155779789Y-96542245D01*
X155779792Y-96542243D01*
X155784300Y-96539086D01*
X155946198Y-96377188D01*
X156077523Y-96189637D01*
X156079846Y-96184655D01*
X156079849Y-96184650D01*
X156145372Y-96044134D01*
X159575000Y-96044134D01*
X159581755Y-96106316D01*
X159632885Y-96242705D01*
X159720239Y-96359261D01*
X159836795Y-96446615D01*
X159973184Y-96497745D01*
X160035366Y-96504500D01*
X162036634Y-96504500D01*
X162098816Y-96497745D01*
X162235205Y-96446615D01*
X162351761Y-96359261D01*
X162439115Y-96242705D01*
X162446573Y-96222811D01*
X162489213Y-96166047D01*
X162555774Y-96141346D01*
X162625123Y-96156553D01*
X162642647Y-96168158D01*
X162760670Y-96261367D01*
X162760675Y-96261370D01*
X162764724Y-96264568D01*
X162769240Y-96267061D01*
X162769243Y-96267063D01*
X162970526Y-96378177D01*
X162970530Y-96378179D01*
X162975050Y-96380674D01*
X162979919Y-96382398D01*
X162979923Y-96382400D01*
X163196640Y-96459144D01*
X163196644Y-96459145D01*
X163201515Y-96460870D01*
X163206608Y-96461777D01*
X163206611Y-96461778D01*
X163432948Y-96502095D01*
X163432954Y-96502096D01*
X163438037Y-96503001D01*
X163525400Y-96504068D01*
X163673093Y-96505873D01*
X163673095Y-96505873D01*
X163678263Y-96505936D01*
X163915744Y-96469596D01*
X164027997Y-96432906D01*
X164139183Y-96396566D01*
X164139189Y-96396563D01*
X164144101Y-96394958D01*
X164148687Y-96392571D01*
X164148691Y-96392569D01*
X164352607Y-96286416D01*
X164357200Y-96284025D01*
X164511520Y-96168158D01*
X164545185Y-96142882D01*
X164545188Y-96142880D01*
X164549320Y-96139777D01*
X164715301Y-95966088D01*
X164740535Y-95929097D01*
X164795444Y-95884096D01*
X164865968Y-95875925D01*
X164929716Y-95907179D01*
X164950411Y-95931660D01*
X164954498Y-95937977D01*
X165116186Y-96115670D01*
X165193017Y-96176347D01*
X165300670Y-96261367D01*
X165300675Y-96261370D01*
X165304724Y-96264568D01*
X165309240Y-96267061D01*
X165309243Y-96267063D01*
X165510526Y-96378177D01*
X165510530Y-96378179D01*
X165515050Y-96380674D01*
X165519919Y-96382398D01*
X165519923Y-96382400D01*
X165736640Y-96459144D01*
X165736644Y-96459145D01*
X165741515Y-96460870D01*
X165746608Y-96461777D01*
X165746611Y-96461778D01*
X165972948Y-96502095D01*
X165972954Y-96502096D01*
X165978037Y-96503001D01*
X166065400Y-96504068D01*
X166213093Y-96505873D01*
X166213095Y-96505873D01*
X166218263Y-96505936D01*
X166455744Y-96469596D01*
X166567997Y-96432906D01*
X166679183Y-96396566D01*
X166679189Y-96396563D01*
X166684101Y-96394958D01*
X166688687Y-96392571D01*
X166688691Y-96392569D01*
X166892607Y-96286416D01*
X166897200Y-96284025D01*
X167051520Y-96168158D01*
X167085185Y-96142882D01*
X167085188Y-96142880D01*
X167089320Y-96139777D01*
X167255301Y-95966088D01*
X167387234Y-95772683D01*
X167387774Y-95771891D01*
X167387775Y-95771890D01*
X167390686Y-95767622D01*
X167393772Y-95760975D01*
X167489658Y-95554405D01*
X167489659Y-95554401D01*
X167491837Y-95549710D01*
X167556040Y-95318202D01*
X167577000Y-95122072D01*
X167577000Y-95025260D01*
X170467132Y-95025260D01*
X170480457Y-95228552D01*
X170530605Y-95426011D01*
X170615898Y-95611025D01*
X170733479Y-95777398D01*
X170737613Y-95781425D01*
X170866703Y-95907179D01*
X170879410Y-95919558D01*
X170884206Y-95922763D01*
X170884209Y-95922765D01*
X170994060Y-95996165D01*
X171048803Y-96032743D01*
X171054106Y-96035021D01*
X171054109Y-96035023D01*
X171220048Y-96106316D01*
X171235987Y-96113164D01*
X171308817Y-96129644D01*
X171429055Y-96156851D01*
X171429060Y-96156852D01*
X171434692Y-96158126D01*
X171440463Y-96158353D01*
X171440465Y-96158353D01*
X171503470Y-96160828D01*
X171638263Y-96166124D01*
X171839883Y-96136891D01*
X171845347Y-96135036D01*
X171845352Y-96135035D01*
X172027327Y-96073263D01*
X172027332Y-96073261D01*
X172032799Y-96071405D01*
X172210551Y-95971859D01*
X172367186Y-95841587D01*
X172497458Y-95684952D01*
X172597004Y-95507200D01*
X172598860Y-95501733D01*
X172598862Y-95501728D01*
X172660634Y-95319753D01*
X172660635Y-95319748D01*
X172662490Y-95314284D01*
X172691723Y-95112664D01*
X172693249Y-95054401D01*
X172678160Y-94890187D01*
X172675137Y-94857281D01*
X172675136Y-94857278D01*
X172674608Y-94851527D01*
X172664991Y-94817427D01*
X172620875Y-94661007D01*
X172620874Y-94661005D01*
X172619307Y-94655448D01*
X172608680Y-94633897D01*
X172582362Y-94580531D01*
X172570172Y-94510589D01*
X172594542Y-94449238D01*
X172625229Y-94408292D01*
X172630615Y-94401106D01*
X172681745Y-94264717D01*
X172688500Y-94202535D01*
X172688500Y-92906267D01*
X172681745Y-92844085D01*
X172630615Y-92707696D01*
X172543261Y-92591140D01*
X172426705Y-92503786D01*
X172290316Y-92452656D01*
X172228134Y-92445901D01*
X170931866Y-92445901D01*
X170869684Y-92452656D01*
X170733295Y-92503786D01*
X170616739Y-92591140D01*
X170529385Y-92707696D01*
X170478255Y-92844085D01*
X170471500Y-92906267D01*
X170471500Y-94202535D01*
X170478255Y-94264717D01*
X170529385Y-94401106D01*
X170564860Y-94448440D01*
X170589706Y-94514945D01*
X170575541Y-94582670D01*
X170551492Y-94628379D01*
X170491078Y-94822944D01*
X170467132Y-95025260D01*
X167577000Y-95025260D01*
X167577000Y-94887598D01*
X167575688Y-94871633D01*
X167566054Y-94754453D01*
X167562322Y-94709063D01*
X167503794Y-94476056D01*
X167447779Y-94347229D01*
X167410057Y-94260474D01*
X167410055Y-94260471D01*
X167407997Y-94255737D01*
X167297426Y-94084821D01*
X167280310Y-94058363D01*
X167280308Y-94058360D01*
X167277502Y-94054023D01*
X167115814Y-93876330D01*
X167008802Y-93791817D01*
X166931330Y-93730633D01*
X166931325Y-93730630D01*
X166927276Y-93727432D01*
X166922760Y-93724939D01*
X166922757Y-93724937D01*
X166721474Y-93613823D01*
X166721470Y-93613821D01*
X166716950Y-93611326D01*
X166712081Y-93609602D01*
X166712077Y-93609600D01*
X166495360Y-93532856D01*
X166495356Y-93532855D01*
X166490485Y-93531130D01*
X166485392Y-93530223D01*
X166485389Y-93530222D01*
X166259052Y-93489905D01*
X166259046Y-93489904D01*
X166253963Y-93488999D01*
X166161474Y-93487869D01*
X166018907Y-93486127D01*
X166018905Y-93486127D01*
X166013737Y-93486064D01*
X165776256Y-93522404D01*
X165664003Y-93559094D01*
X165552817Y-93595434D01*
X165552811Y-93595437D01*
X165547899Y-93597042D01*
X165543313Y-93599429D01*
X165543309Y-93599431D01*
X165429974Y-93658430D01*
X165334800Y-93707975D01*
X165330657Y-93711085D01*
X165330658Y-93711085D01*
X165166514Y-93834328D01*
X165142680Y-93852223D01*
X164976699Y-94025912D01*
X164951465Y-94062903D01*
X164896556Y-94107904D01*
X164826032Y-94116075D01*
X164762284Y-94084821D01*
X164741589Y-94060340D01*
X164740311Y-94058365D01*
X164737502Y-94054023D01*
X164575814Y-93876330D01*
X164468802Y-93791817D01*
X164391330Y-93730633D01*
X164391325Y-93730630D01*
X164387276Y-93727432D01*
X164382760Y-93724939D01*
X164382757Y-93724937D01*
X164181474Y-93613823D01*
X164181470Y-93613821D01*
X164176950Y-93611326D01*
X164172081Y-93609602D01*
X164172077Y-93609600D01*
X163955360Y-93532856D01*
X163955356Y-93532855D01*
X163950485Y-93531130D01*
X163945392Y-93530223D01*
X163945389Y-93530222D01*
X163719052Y-93489905D01*
X163719046Y-93489904D01*
X163713963Y-93488999D01*
X163621474Y-93487869D01*
X163478907Y-93486127D01*
X163478905Y-93486127D01*
X163473737Y-93486064D01*
X163236256Y-93522404D01*
X163124003Y-93559094D01*
X163012817Y-93595434D01*
X163012811Y-93595437D01*
X163007899Y-93597042D01*
X163003313Y-93599429D01*
X163003309Y-93599431D01*
X162889974Y-93658430D01*
X162794800Y-93707975D01*
X162639717Y-93824415D01*
X162573235Y-93849320D01*
X162503839Y-93834328D01*
X162453565Y-93784198D01*
X162446085Y-93767885D01*
X162442269Y-93757707D01*
X162442267Y-93757703D01*
X162439115Y-93749295D01*
X162351761Y-93632739D01*
X162235205Y-93545385D01*
X162098816Y-93494255D01*
X162036634Y-93487500D01*
X160035366Y-93487500D01*
X159973184Y-93494255D01*
X159836795Y-93545385D01*
X159720239Y-93632739D01*
X159632885Y-93749295D01*
X159581755Y-93885684D01*
X159575000Y-93947866D01*
X159575000Y-96044134D01*
X156145372Y-96044134D01*
X156171961Y-95987113D01*
X156171961Y-95987112D01*
X156174284Y-95982131D01*
X156177037Y-95971859D01*
X156232119Y-95766290D01*
X156232119Y-95766288D01*
X156233543Y-95760975D01*
X156253498Y-95532888D01*
X156233543Y-95304801D01*
X156213112Y-95228552D01*
X156175707Y-95088955D01*
X156175706Y-95088953D01*
X156174284Y-95083645D01*
X156162375Y-95058105D01*
X156079849Y-94881126D01*
X156079846Y-94881121D01*
X156077523Y-94876139D01*
X156073705Y-94870686D01*
X156073541Y-94870202D01*
X156071617Y-94866869D01*
X156072287Y-94866482D01*
X156051012Y-94803414D01*
X156068293Y-94734553D01*
X156091002Y-94709151D01*
X156089731Y-94707880D01*
X156096081Y-94701530D01*
X156103261Y-94696149D01*
X156190615Y-94579593D01*
X156241745Y-94443204D01*
X156248500Y-94381022D01*
X156248500Y-92684754D01*
X156241745Y-92622572D01*
X156190615Y-92486183D01*
X156103261Y-92369627D01*
X155986705Y-92282273D01*
X155850316Y-92231143D01*
X155788134Y-92224388D01*
X154091866Y-92224388D01*
X154029684Y-92231143D01*
X153893295Y-92282273D01*
X153776739Y-92369627D01*
X153689385Y-92486183D01*
X153638255Y-92622572D01*
X153631500Y-92684754D01*
X153631500Y-94381022D01*
X153638255Y-94443204D01*
X153689385Y-94579593D01*
X153776739Y-94696149D01*
X153783919Y-94701530D01*
X153790269Y-94707880D01*
X153788029Y-94710120D01*
X153821171Y-94754453D01*
X153826190Y-94825272D01*
X153808051Y-94866678D01*
X153808383Y-94866869D01*
X153806661Y-94869852D01*
X153806296Y-94870685D01*
X153802477Y-94876139D01*
X153800154Y-94881121D01*
X153800151Y-94881126D01*
X153717625Y-95058105D01*
X153705716Y-95083645D01*
X153704294Y-95088953D01*
X153704293Y-95088955D01*
X153666888Y-95228552D01*
X153646457Y-95304801D01*
X153626502Y-95532888D01*
X149954120Y-95532888D01*
X150091176Y-95372416D01*
X150093755Y-95368208D01*
X150093759Y-95368202D01*
X150212654Y-95174183D01*
X150215240Y-95169963D01*
X150223076Y-95151047D01*
X150304211Y-94955167D01*
X150304212Y-94955165D01*
X150306105Y-94950594D01*
X150341440Y-94803414D01*
X150360380Y-94724524D01*
X150360381Y-94724518D01*
X150361535Y-94719711D01*
X150380165Y-94483000D01*
X150361535Y-94246289D01*
X150355120Y-94219566D01*
X150322770Y-94084821D01*
X150306105Y-94015406D01*
X150276722Y-93944469D01*
X150217135Y-93800611D01*
X150217133Y-93800607D01*
X150215240Y-93796037D01*
X150171670Y-93724937D01*
X150093759Y-93597798D01*
X150093755Y-93597792D01*
X150091176Y-93593584D01*
X149936969Y-93413031D01*
X149756416Y-93258824D01*
X149752208Y-93256245D01*
X149752202Y-93256241D01*
X149558183Y-93137346D01*
X149553963Y-93134760D01*
X149549393Y-93132867D01*
X149549389Y-93132865D01*
X149339167Y-93045789D01*
X149339165Y-93045788D01*
X149334594Y-93043895D01*
X149245161Y-93022424D01*
X149108524Y-92989620D01*
X149108518Y-92989619D01*
X149103711Y-92988465D01*
X148867000Y-92969835D01*
X148630289Y-92988465D01*
X148625482Y-92989619D01*
X148625476Y-92989620D01*
X148488839Y-93022424D01*
X148399406Y-93043895D01*
X148394835Y-93045788D01*
X148394833Y-93045789D01*
X148184611Y-93132865D01*
X148184607Y-93132867D01*
X148180037Y-93134760D01*
X148175817Y-93137346D01*
X147981798Y-93256241D01*
X147981792Y-93256245D01*
X147977584Y-93258824D01*
X147797031Y-93413031D01*
X147642824Y-93593584D01*
X147640245Y-93597792D01*
X147640241Y-93597798D01*
X147562330Y-93724937D01*
X147518760Y-93796037D01*
X147516867Y-93800607D01*
X147516865Y-93800611D01*
X147457278Y-93944469D01*
X147427895Y-94015406D01*
X147411230Y-94084821D01*
X147378881Y-94219566D01*
X147372465Y-94246289D01*
X147353835Y-94483000D01*
X145295500Y-94483000D01*
X145295500Y-93434866D01*
X145288745Y-93372684D01*
X145237615Y-93236295D01*
X145150261Y-93119739D01*
X145033705Y-93032385D01*
X144897316Y-92981255D01*
X144835134Y-92974500D01*
X142738866Y-92974500D01*
X142676684Y-92981255D01*
X142540295Y-93032385D01*
X142423739Y-93119739D01*
X142336385Y-93236295D01*
X142285255Y-93372684D01*
X142278500Y-93434866D01*
X142278500Y-95531134D01*
X141732000Y-95531134D01*
X141732000Y-93078268D01*
X141732415Y-93068053D01*
X141736126Y-93022424D01*
X141736308Y-93020190D01*
X141736896Y-92964000D01*
X141732228Y-92886571D01*
X141732000Y-92878989D01*
X141732000Y-91566000D01*
X141752002Y-91497879D01*
X141805658Y-91451386D01*
X141858000Y-91440000D01*
X173610000Y-91440000D01*
X173678121Y-91460002D01*
G37*
%TD.AperFunction*%
%TD*%
M02*
