%TF.GenerationSoftware,KiCad,Pcbnew,(6.0.0)*%
%TF.CreationDate,2022-01-15T23:56:29+13:00*%
%TF.ProjectId,DCC_PCB,4443435f-5043-4422-9e6b-696361645f70,rev?*%
%TF.SameCoordinates,Original*%
%TF.FileFunction,Legend,Top*%
%TF.FilePolarity,Positive*%
%FSLAX46Y46*%
G04 Gerber Fmt 4.6, Leading zero omitted, Abs format (unit mm)*
G04 Created by KiCad (PCBNEW (6.0.0)) date 2022-01-15 23:56:29*
%MOMM*%
%LPD*%
G01*
G04 APERTURE LIST*
%ADD10C,0.150000*%
%ADD11C,0.120000*%
%ADD12R,1.700000X1.700000*%
%ADD13O,1.700000X1.700000*%
%ADD14C,1.400000*%
%ADD15O,1.400000X1.400000*%
%ADD16R,1.200000X1.200000*%
%ADD17C,1.200000*%
%ADD18C,1.600000*%
%ADD19R,1.600000X1.600000*%
%ADD20O,1.600000X1.600000*%
%ADD21R,1.905000X2.000000*%
%ADD22O,1.905000X2.000000*%
%ADD23R,2.000000X2.000000*%
%ADD24O,2.000000X2.000000*%
G04 APERTURE END LIST*
D10*
X141184380Y-108473714D02*
X141184380Y-107902285D01*
X142184380Y-108188000D02*
X141184380Y-108188000D01*
X142184380Y-106997523D02*
X141708190Y-107330857D01*
X142184380Y-107568952D02*
X141184380Y-107568952D01*
X141184380Y-107188000D01*
X141232000Y-107092761D01*
X141279619Y-107045142D01*
X141374857Y-106997523D01*
X141517714Y-106997523D01*
X141612952Y-107045142D01*
X141660571Y-107092761D01*
X141708190Y-107188000D01*
X141708190Y-107568952D01*
X142184380Y-106568952D02*
X141184380Y-106568952D01*
X142184380Y-105997523D02*
X141612952Y-106426095D01*
X141184380Y-105997523D02*
X141755809Y-106568952D01*
X136299380Y-110766666D02*
X135299380Y-110766666D01*
X135299380Y-110528571D01*
X135347000Y-110385714D01*
X135442238Y-110290476D01*
X135537476Y-110242857D01*
X135727952Y-110195238D01*
X135870809Y-110195238D01*
X136061285Y-110242857D01*
X136156523Y-110290476D01*
X136251761Y-110385714D01*
X136299380Y-110528571D01*
X136299380Y-110766666D01*
X136204142Y-109195238D02*
X136251761Y-109242857D01*
X136299380Y-109385714D01*
X136299380Y-109480952D01*
X136251761Y-109623809D01*
X136156523Y-109719047D01*
X136061285Y-109766666D01*
X135870809Y-109814285D01*
X135727952Y-109814285D01*
X135537476Y-109766666D01*
X135442238Y-109719047D01*
X135347000Y-109623809D01*
X135299380Y-109480952D01*
X135299380Y-109385714D01*
X135347000Y-109242857D01*
X135394619Y-109195238D01*
X136204142Y-108195238D02*
X136251761Y-108242857D01*
X136299380Y-108385714D01*
X136299380Y-108480952D01*
X136251761Y-108623809D01*
X136156523Y-108719047D01*
X136061285Y-108766666D01*
X135870809Y-108814285D01*
X135727952Y-108814285D01*
X135537476Y-108766666D01*
X135442238Y-108719047D01*
X135347000Y-108623809D01*
X135299380Y-108480952D01*
X135299380Y-108385714D01*
X135347000Y-108242857D01*
X135394619Y-108195238D01*
X135918428Y-107766666D02*
X135918428Y-107004761D01*
X136013666Y-106576190D02*
X136013666Y-106100000D01*
X136299380Y-106671428D02*
X135299380Y-106338095D01*
X136299380Y-106004761D01*
X136299380Y-105100000D02*
X135823190Y-105433333D01*
X136299380Y-105671428D02*
X135299380Y-105671428D01*
X135299380Y-105290476D01*
X135347000Y-105195238D01*
X135394619Y-105147619D01*
X135489857Y-105100000D01*
X135632714Y-105100000D01*
X135727952Y-105147619D01*
X135775571Y-105195238D01*
X135823190Y-105290476D01*
X135823190Y-105671428D01*
X136299380Y-104671428D02*
X135299380Y-104671428D01*
X135299380Y-104433333D01*
X135347000Y-104290476D01*
X135442238Y-104195238D01*
X135537476Y-104147619D01*
X135727952Y-104100000D01*
X135870809Y-104100000D01*
X136061285Y-104147619D01*
X136156523Y-104195238D01*
X136251761Y-104290476D01*
X136299380Y-104433333D01*
X136299380Y-104671428D01*
X135299380Y-103671428D02*
X136108904Y-103671428D01*
X136204142Y-103623809D01*
X136251761Y-103576190D01*
X136299380Y-103480952D01*
X136299380Y-103290476D01*
X136251761Y-103195238D01*
X136204142Y-103147619D01*
X136108904Y-103100000D01*
X135299380Y-103100000D01*
X136299380Y-102623809D02*
X135299380Y-102623809D01*
X136299380Y-102147619D02*
X135299380Y-102147619D01*
X136299380Y-101576190D01*
X135299380Y-101576190D01*
X135299380Y-100909523D02*
X135299380Y-100719047D01*
X135347000Y-100623809D01*
X135442238Y-100528571D01*
X135632714Y-100480952D01*
X135966047Y-100480952D01*
X136156523Y-100528571D01*
X136251761Y-100623809D01*
X136299380Y-100719047D01*
X136299380Y-100909523D01*
X136251761Y-101004761D01*
X136156523Y-101100000D01*
X135966047Y-101147619D01*
X135632714Y-101147619D01*
X135442238Y-101100000D01*
X135347000Y-101004761D01*
X135299380Y-100909523D01*
X136299380Y-98814285D02*
X136299380Y-99290476D01*
X135299380Y-99290476D01*
X136299380Y-98480952D02*
X135299380Y-98480952D01*
X136299380Y-98004761D02*
X135299380Y-98004761D01*
X136299380Y-97433333D01*
X135299380Y-97433333D01*
X136299380Y-96957142D02*
X135299380Y-96957142D01*
X136299380Y-96385714D02*
X135727952Y-96814285D01*
X135299380Y-96385714D02*
X135870809Y-96957142D01*
X135299380Y-95338095D02*
X136299380Y-95004761D01*
X135299380Y-94671428D01*
X136299380Y-93814285D02*
X136299380Y-94385714D01*
X136299380Y-94100000D02*
X135299380Y-94100000D01*
X135442238Y-94195238D01*
X135537476Y-94290476D01*
X135585095Y-94385714D01*
X136204142Y-93385714D02*
X136251761Y-93338095D01*
X136299380Y-93385714D01*
X136251761Y-93433333D01*
X136204142Y-93385714D01*
X136299380Y-93385714D01*
X135299380Y-92719047D02*
X135299380Y-92623809D01*
X135347000Y-92528571D01*
X135394619Y-92480952D01*
X135489857Y-92433333D01*
X135680333Y-92385714D01*
X135918428Y-92385714D01*
X136108904Y-92433333D01*
X136204142Y-92480952D01*
X136251761Y-92528571D01*
X136299380Y-92623809D01*
X136299380Y-92719047D01*
X136251761Y-92814285D01*
X136204142Y-92861904D01*
X136108904Y-92909523D01*
X135918428Y-92957142D01*
X135680333Y-92957142D01*
X135489857Y-92909523D01*
X135394619Y-92861904D01*
X135347000Y-92814285D01*
X135299380Y-92719047D01*
X137909380Y-105480952D02*
X136909380Y-105480952D01*
X137909380Y-104909523D01*
X136909380Y-104909523D01*
X137909380Y-104433333D02*
X137242714Y-104433333D01*
X136909380Y-104433333D02*
X136957000Y-104480952D01*
X137004619Y-104433333D01*
X136957000Y-104385714D01*
X136909380Y-104433333D01*
X137004619Y-104433333D01*
X137909380Y-103957142D02*
X136909380Y-103957142D01*
X137528428Y-103861904D02*
X137909380Y-103576190D01*
X137242714Y-103576190D02*
X137623666Y-103957142D01*
X137909380Y-103004761D02*
X137861761Y-103100000D01*
X137814142Y-103147619D01*
X137718904Y-103195238D01*
X137433190Y-103195238D01*
X137337952Y-103147619D01*
X137290333Y-103100000D01*
X137242714Y-103004761D01*
X137242714Y-102861904D01*
X137290333Y-102766666D01*
X137337952Y-102719047D01*
X137433190Y-102671428D01*
X137718904Y-102671428D01*
X137814142Y-102719047D01*
X137861761Y-102766666D01*
X137909380Y-102861904D01*
X137909380Y-103004761D01*
X137861761Y-101528571D02*
X137909380Y-101385714D01*
X137909380Y-101147619D01*
X137861761Y-101052380D01*
X137814142Y-101004761D01*
X137718904Y-100957142D01*
X137623666Y-100957142D01*
X137528428Y-101004761D01*
X137480809Y-101052380D01*
X137433190Y-101147619D01*
X137385571Y-101338095D01*
X137337952Y-101433333D01*
X137290333Y-101480952D01*
X137195095Y-101528571D01*
X137099857Y-101528571D01*
X137004619Y-101480952D01*
X136957000Y-101433333D01*
X136909380Y-101338095D01*
X136909380Y-101100000D01*
X136957000Y-100957142D01*
X137909380Y-100528571D02*
X137242714Y-100528571D01*
X137337952Y-100528571D02*
X137290333Y-100480952D01*
X137242714Y-100385714D01*
X137242714Y-100242857D01*
X137290333Y-100147619D01*
X137385571Y-100100000D01*
X137909380Y-100100000D01*
X137385571Y-100100000D02*
X137290333Y-100052380D01*
X137242714Y-99957142D01*
X137242714Y-99814285D01*
X137290333Y-99719047D01*
X137385571Y-99671428D01*
X137909380Y-99671428D01*
X137909380Y-99195238D02*
X137242714Y-99195238D01*
X136909380Y-99195238D02*
X136957000Y-99242857D01*
X137004619Y-99195238D01*
X136957000Y-99147619D01*
X136909380Y-99195238D01*
X137004619Y-99195238D01*
X137242714Y-98861904D02*
X137242714Y-98480952D01*
X136909380Y-98719047D02*
X137766523Y-98719047D01*
X137861761Y-98671428D01*
X137909380Y-98576190D01*
X137909380Y-98480952D01*
X137909380Y-98147619D02*
X136909380Y-98147619D01*
X137909380Y-97719047D02*
X137385571Y-97719047D01*
X137290333Y-97766666D01*
X137242714Y-97861904D01*
X137242714Y-98004761D01*
X137290333Y-98100000D01*
X137337952Y-98147619D01*
X174204380Y-103314476D02*
X174204380Y-103790666D01*
X174680571Y-103838285D01*
X174632952Y-103790666D01*
X174585333Y-103695428D01*
X174585333Y-103457333D01*
X174632952Y-103362095D01*
X174680571Y-103314476D01*
X174775809Y-103266857D01*
X175013904Y-103266857D01*
X175109142Y-103314476D01*
X175156761Y-103362095D01*
X175204380Y-103457333D01*
X175204380Y-103695428D01*
X175156761Y-103790666D01*
X175109142Y-103838285D01*
X174204380Y-102981142D02*
X175204380Y-102647809D01*
X174204380Y-102314476D01*
X174252000Y-110489904D02*
X174204380Y-110585142D01*
X174204380Y-110728000D01*
X174252000Y-110870857D01*
X174347238Y-110966095D01*
X174442476Y-111013714D01*
X174632952Y-111061333D01*
X174775809Y-111061333D01*
X174966285Y-111013714D01*
X175061523Y-110966095D01*
X175156761Y-110870857D01*
X175204380Y-110728000D01*
X175204380Y-110632761D01*
X175156761Y-110489904D01*
X175109142Y-110442285D01*
X174775809Y-110442285D01*
X174775809Y-110632761D01*
X175204380Y-110013714D02*
X174204380Y-110013714D01*
X175204380Y-109442285D01*
X174204380Y-109442285D01*
X175204380Y-108966095D02*
X174204380Y-108966095D01*
X174204380Y-108728000D01*
X174252000Y-108585142D01*
X174347238Y-108489904D01*
X174442476Y-108442285D01*
X174632952Y-108394666D01*
X174775809Y-108394666D01*
X174966285Y-108442285D01*
X175061523Y-108489904D01*
X175156761Y-108585142D01*
X175204380Y-108728000D01*
X175204380Y-108966095D01*
X175204380Y-107433904D02*
X174204380Y-107433904D01*
X174204380Y-107195809D01*
X174252000Y-107052952D01*
X174347238Y-106957714D01*
X174442476Y-106910095D01*
X174632952Y-106862476D01*
X174775809Y-106862476D01*
X174966285Y-106910095D01*
X175061523Y-106957714D01*
X175156761Y-107052952D01*
X175204380Y-107195809D01*
X175204380Y-107433904D01*
X175109142Y-105862476D02*
X175156761Y-105910095D01*
X175204380Y-106052952D01*
X175204380Y-106148190D01*
X175156761Y-106291047D01*
X175061523Y-106386285D01*
X174966285Y-106433904D01*
X174775809Y-106481523D01*
X174632952Y-106481523D01*
X174442476Y-106433904D01*
X174347238Y-106386285D01*
X174252000Y-106291047D01*
X174204380Y-106148190D01*
X174204380Y-106052952D01*
X174252000Y-105910095D01*
X174299619Y-105862476D01*
X175109142Y-104862476D02*
X175156761Y-104910095D01*
X175204380Y-105052952D01*
X175204380Y-105148190D01*
X175156761Y-105291047D01*
X175061523Y-105386285D01*
X174966285Y-105433904D01*
X174775809Y-105481523D01*
X174632952Y-105481523D01*
X174442476Y-105433904D01*
X174347238Y-105386285D01*
X174252000Y-105291047D01*
X174204380Y-105148190D01*
X174204380Y-105052952D01*
X174252000Y-104910095D01*
X174299619Y-104862476D01*
%TO.C,J4*%
X174204380Y-99901333D02*
X174918666Y-99901333D01*
X175061523Y-99948952D01*
X175156761Y-100044190D01*
X175204380Y-100187047D01*
X175204380Y-100282285D01*
X174537714Y-98996571D02*
X175204380Y-98996571D01*
X174156761Y-99234666D02*
X174871047Y-99472761D01*
X174871047Y-98853714D01*
%TO.C,R2*%
X165949333Y-111704380D02*
X165616000Y-111228190D01*
X165377904Y-111704380D02*
X165377904Y-110704380D01*
X165758857Y-110704380D01*
X165854095Y-110752000D01*
X165901714Y-110799619D01*
X165949333Y-110894857D01*
X165949333Y-111037714D01*
X165901714Y-111132952D01*
X165854095Y-111180571D01*
X165758857Y-111228190D01*
X165377904Y-111228190D01*
X166330285Y-110799619D02*
X166377904Y-110752000D01*
X166473142Y-110704380D01*
X166711238Y-110704380D01*
X166806476Y-110752000D01*
X166854095Y-110799619D01*
X166901714Y-110894857D01*
X166901714Y-110990095D01*
X166854095Y-111132952D01*
X166282666Y-111704380D01*
X166901714Y-111704380D01*
%TO.C,C2*%
X171537333Y-91289142D02*
X171489714Y-91336761D01*
X171346857Y-91384380D01*
X171251619Y-91384380D01*
X171108761Y-91336761D01*
X171013523Y-91241523D01*
X170965904Y-91146285D01*
X170918285Y-90955809D01*
X170918285Y-90812952D01*
X170965904Y-90622476D01*
X171013523Y-90527238D01*
X171108761Y-90432000D01*
X171251619Y-90384380D01*
X171346857Y-90384380D01*
X171489714Y-90432000D01*
X171537333Y-90479619D01*
X171918285Y-90479619D02*
X171965904Y-90432000D01*
X172061142Y-90384380D01*
X172299238Y-90384380D01*
X172394476Y-90432000D01*
X172442095Y-90479619D01*
X172489714Y-90574857D01*
X172489714Y-90670095D01*
X172442095Y-90812952D01*
X171870666Y-91384380D01*
X172489714Y-91384380D01*
%TO.C,C3*%
X163449333Y-97893142D02*
X163401714Y-97940761D01*
X163258857Y-97988380D01*
X163163619Y-97988380D01*
X163020761Y-97940761D01*
X162925523Y-97845523D01*
X162877904Y-97750285D01*
X162830285Y-97559809D01*
X162830285Y-97416952D01*
X162877904Y-97226476D01*
X162925523Y-97131238D01*
X163020761Y-97036000D01*
X163163619Y-96988380D01*
X163258857Y-96988380D01*
X163401714Y-97036000D01*
X163449333Y-97083619D01*
X163782666Y-96988380D02*
X164401714Y-96988380D01*
X164068380Y-97369333D01*
X164211238Y-97369333D01*
X164306476Y-97416952D01*
X164354095Y-97464571D01*
X164401714Y-97559809D01*
X164401714Y-97797904D01*
X164354095Y-97893142D01*
X164306476Y-97940761D01*
X164211238Y-97988380D01*
X163925523Y-97988380D01*
X163830285Y-97940761D01*
X163782666Y-97893142D01*
%TO.C,U2*%
X156718095Y-112736380D02*
X156718095Y-113545904D01*
X156765714Y-113641142D01*
X156813333Y-113688761D01*
X156908571Y-113736380D01*
X157099047Y-113736380D01*
X157194285Y-113688761D01*
X157241904Y-113641142D01*
X157289523Y-113545904D01*
X157289523Y-112736380D01*
X157718095Y-112831619D02*
X157765714Y-112784000D01*
X157860952Y-112736380D01*
X158099047Y-112736380D01*
X158194285Y-112784000D01*
X158241904Y-112831619D01*
X158289523Y-112926857D01*
X158289523Y-113022095D01*
X158241904Y-113164952D01*
X157670476Y-113736380D01*
X158289523Y-113736380D01*
%TO.C,J3*%
X171370666Y-110704380D02*
X171370666Y-111418666D01*
X171323047Y-111561523D01*
X171227809Y-111656761D01*
X171084952Y-111704380D01*
X170989714Y-111704380D01*
X171751619Y-110704380D02*
X172370666Y-110704380D01*
X172037333Y-111085333D01*
X172180190Y-111085333D01*
X172275428Y-111132952D01*
X172323047Y-111180571D01*
X172370666Y-111275809D01*
X172370666Y-111513904D01*
X172323047Y-111609142D01*
X172275428Y-111656761D01*
X172180190Y-111704380D01*
X171894476Y-111704380D01*
X171799238Y-111656761D01*
X171751619Y-111609142D01*
%TO.C,C4*%
X163917333Y-106021142D02*
X163869714Y-106068761D01*
X163726857Y-106116380D01*
X163631619Y-106116380D01*
X163488761Y-106068761D01*
X163393523Y-105973523D01*
X163345904Y-105878285D01*
X163298285Y-105687809D01*
X163298285Y-105544952D01*
X163345904Y-105354476D01*
X163393523Y-105259238D01*
X163488761Y-105164000D01*
X163631619Y-105116380D01*
X163726857Y-105116380D01*
X163869714Y-105164000D01*
X163917333Y-105211619D01*
X164774476Y-105449714D02*
X164774476Y-106116380D01*
X164536380Y-105068761D02*
X164298285Y-105783047D01*
X164917333Y-105783047D01*
%TO.C,D2*%
X149651904Y-111196380D02*
X149651904Y-110196380D01*
X149890000Y-110196380D01*
X150032857Y-110244000D01*
X150128095Y-110339238D01*
X150175714Y-110434476D01*
X150223333Y-110624952D01*
X150223333Y-110767809D01*
X150175714Y-110958285D01*
X150128095Y-111053523D01*
X150032857Y-111148761D01*
X149890000Y-111196380D01*
X149651904Y-111196380D01*
X150604285Y-110291619D02*
X150651904Y-110244000D01*
X150747142Y-110196380D01*
X150985238Y-110196380D01*
X151080476Y-110244000D01*
X151128095Y-110291619D01*
X151175714Y-110386857D01*
X151175714Y-110482095D01*
X151128095Y-110624952D01*
X150556666Y-111196380D01*
X151175714Y-111196380D01*
%TO.C,U1*%
X162814095Y-90384380D02*
X162814095Y-91193904D01*
X162861714Y-91289142D01*
X162909333Y-91336761D01*
X163004571Y-91384380D01*
X163195047Y-91384380D01*
X163290285Y-91336761D01*
X163337904Y-91289142D01*
X163385523Y-91193904D01*
X163385523Y-90384380D01*
X164385523Y-91384380D02*
X163814095Y-91384380D01*
X164099809Y-91384380D02*
X164099809Y-90384380D01*
X164004571Y-90527238D01*
X163909333Y-90622476D01*
X163814095Y-90670095D01*
%TO.C,R1*%
X147429333Y-111196380D02*
X147096000Y-110720190D01*
X146857904Y-111196380D02*
X146857904Y-110196380D01*
X147238857Y-110196380D01*
X147334095Y-110244000D01*
X147381714Y-110291619D01*
X147429333Y-110386857D01*
X147429333Y-110529714D01*
X147381714Y-110624952D01*
X147334095Y-110672571D01*
X147238857Y-110720190D01*
X146857904Y-110720190D01*
X148381714Y-111196380D02*
X147810285Y-111196380D01*
X148096000Y-111196380D02*
X148096000Y-110196380D01*
X148000761Y-110339238D01*
X147905523Y-110434476D01*
X147810285Y-110482095D01*
%TO.C,R3*%
X168569333Y-111704380D02*
X168236000Y-111228190D01*
X167997904Y-111704380D02*
X167997904Y-110704380D01*
X168378857Y-110704380D01*
X168474095Y-110752000D01*
X168521714Y-110799619D01*
X168569333Y-110894857D01*
X168569333Y-111037714D01*
X168521714Y-111132952D01*
X168474095Y-111180571D01*
X168378857Y-111228190D01*
X167997904Y-111228190D01*
X168902666Y-110704380D02*
X169521714Y-110704380D01*
X169188380Y-111085333D01*
X169331238Y-111085333D01*
X169426476Y-111132952D01*
X169474095Y-111180571D01*
X169521714Y-111275809D01*
X169521714Y-111513904D01*
X169474095Y-111609142D01*
X169426476Y-111656761D01*
X169331238Y-111704380D01*
X169045523Y-111704380D01*
X168950285Y-111656761D01*
X168902666Y-111609142D01*
%TO.C,D1*%
X145588904Y-91384380D02*
X145588904Y-90384380D01*
X145827000Y-90384380D01*
X145969857Y-90432000D01*
X146065095Y-90527238D01*
X146112714Y-90622476D01*
X146160333Y-90812952D01*
X146160333Y-90955809D01*
X146112714Y-91146285D01*
X146065095Y-91241523D01*
X145969857Y-91336761D01*
X145827000Y-91384380D01*
X145588904Y-91384380D01*
X147112714Y-91384380D02*
X146541285Y-91384380D01*
X146827000Y-91384380D02*
X146827000Y-90384380D01*
X146731761Y-90527238D01*
X146636523Y-90622476D01*
X146541285Y-90670095D01*
%TO.C,C1*%
X154773333Y-91289142D02*
X154725714Y-91336761D01*
X154582857Y-91384380D01*
X154487619Y-91384380D01*
X154344761Y-91336761D01*
X154249523Y-91241523D01*
X154201904Y-91146285D01*
X154154285Y-90955809D01*
X154154285Y-90812952D01*
X154201904Y-90622476D01*
X154249523Y-90527238D01*
X154344761Y-90432000D01*
X154487619Y-90384380D01*
X154582857Y-90384380D01*
X154725714Y-90432000D01*
X154773333Y-90479619D01*
X155725714Y-91384380D02*
X155154285Y-91384380D01*
X155440000Y-91384380D02*
X155440000Y-90384380D01*
X155344761Y-90527238D01*
X155249523Y-90622476D01*
X155154285Y-90670095D01*
%TO.C,J2*%
X152360380Y-99901333D02*
X153074666Y-99901333D01*
X153217523Y-99948952D01*
X153312761Y-100044190D01*
X153360380Y-100187047D01*
X153360380Y-100282285D01*
X152455619Y-99472761D02*
X152408000Y-99425142D01*
X152360380Y-99329904D01*
X152360380Y-99091809D01*
X152408000Y-98996571D01*
X152455619Y-98948952D01*
X152550857Y-98901333D01*
X152646095Y-98901333D01*
X152788952Y-98948952D01*
X153360380Y-99520380D01*
X153360380Y-98901333D01*
%TO.C,J1*%
X143684666Y-110196380D02*
X143684666Y-110910666D01*
X143637047Y-111053523D01*
X143541809Y-111148761D01*
X143398952Y-111196380D01*
X143303714Y-111196380D01*
X144684666Y-111196380D02*
X144113238Y-111196380D01*
X144398952Y-111196380D02*
X144398952Y-110196380D01*
X144303714Y-110339238D01*
X144208476Y-110434476D01*
X144113238Y-110482095D01*
D11*
%TO.C,J4*%
X173542000Y-100898000D02*
X173542000Y-98238000D01*
X170942000Y-100898000D02*
X173542000Y-100898000D01*
X170942000Y-98238000D02*
X173542000Y-98238000D01*
X170942000Y-100898000D02*
X170942000Y-98238000D01*
X169672000Y-100898000D02*
X168342000Y-100898000D01*
X168342000Y-100898000D02*
X168342000Y-99568000D01*
%TO.C,R2*%
X165416000Y-108437867D02*
G75*
G03*
X166865359Y-108534905I700000J-417133D01*
G01*
%TO.C,C2*%
X170740000Y-95505401D02*
X169872000Y-95505401D01*
X173660000Y-94304401D02*
X172420000Y-94304401D01*
X170740000Y-94704401D02*
X169538000Y-94704401D01*
X170740000Y-95585401D02*
X169930000Y-95585401D01*
X173018000Y-95825401D02*
X172420000Y-95825401D01*
X173132000Y-95705401D02*
X172420000Y-95705401D01*
X170740000Y-95385401D02*
X169795000Y-95385401D01*
X170740000Y-95105401D02*
X169656000Y-95105401D01*
X173315000Y-95465401D02*
X172420000Y-95465401D01*
X173260000Y-95545401D02*
X172420000Y-95545401D01*
X172660000Y-96105401D02*
X170500000Y-96105401D01*
X173365000Y-95385401D02*
X172420000Y-95385401D01*
X170740000Y-95625401D02*
X169961000Y-95625401D01*
X170740000Y-94464401D02*
X169506000Y-94464401D01*
X173230000Y-95585401D02*
X172420000Y-95585401D01*
X170740000Y-94904401D02*
X169586000Y-94904401D01*
X170740000Y-95825401D02*
X170142000Y-95825401D01*
X170740000Y-94344401D02*
X169500000Y-94344401D01*
X170740000Y-95425401D02*
X169820000Y-95425401D01*
X170740000Y-94864401D02*
X169575000Y-94864401D01*
X173534000Y-95025401D02*
X172420000Y-95025401D01*
X172722000Y-96065401D02*
X170438000Y-96065401D01*
X173340000Y-95425401D02*
X172420000Y-95425401D01*
X173657000Y-94424401D02*
X172420000Y-94424401D01*
X170740000Y-95185401D02*
X169691000Y-95185401D01*
X172520000Y-96185401D02*
X170640000Y-96185401D01*
X172439000Y-96225401D02*
X170721000Y-96225401D01*
X170740000Y-94784401D02*
X169555000Y-94784401D01*
X173288000Y-95505401D02*
X172420000Y-95505401D01*
X173058000Y-95785401D02*
X172420000Y-95785401D01*
X172931000Y-95905401D02*
X170229000Y-95905401D01*
X173659000Y-94384401D02*
X172420000Y-94384401D01*
X173504000Y-95105401D02*
X172420000Y-95105401D01*
X172348000Y-96265401D02*
X170812000Y-96265401D01*
X170740000Y-94624401D02*
X169524000Y-94624401D01*
X172884000Y-95945401D02*
X170276000Y-95945401D01*
X173605000Y-94784401D02*
X172420000Y-94784401D01*
X170740000Y-94384401D02*
X169501000Y-94384401D01*
X170740000Y-95265401D02*
X169729000Y-95265401D01*
X173431000Y-95265401D02*
X172420000Y-95265401D01*
X173585000Y-94864401D02*
X172420000Y-94864401D01*
X170740000Y-94744401D02*
X169546000Y-94744401D01*
X170740000Y-95145401D02*
X169673000Y-95145401D01*
X173469000Y-95185401D02*
X172420000Y-95185401D01*
X170740000Y-94944401D02*
X169598000Y-94944401D01*
X173562000Y-94944401D02*
X172420000Y-94944401D01*
X170740000Y-95025401D02*
X169626000Y-95025401D01*
X173630000Y-94664401D02*
X172420000Y-94664401D01*
X170740000Y-95865401D02*
X170184000Y-95865401D01*
X172117000Y-96345401D02*
X171043000Y-96345401D01*
X170740000Y-94664401D02*
X169530000Y-94664401D01*
X173596000Y-94824401D02*
X172420000Y-94824401D01*
X173410000Y-95305401D02*
X172420000Y-95305401D01*
X173574000Y-94904401D02*
X172420000Y-94904401D01*
X173199000Y-95625401D02*
X172420000Y-95625401D01*
X172775000Y-92034600D02*
X172775000Y-92434600D01*
X170740000Y-95465401D02*
X169845000Y-95465401D01*
X170740000Y-95665401D02*
X169993000Y-95665401D01*
X171950000Y-96385401D02*
X171210000Y-96385401D01*
X173450000Y-95225401D02*
X172420000Y-95225401D01*
X173520000Y-95065401D02*
X172420000Y-95065401D01*
X173622000Y-94704401D02*
X172420000Y-94704401D01*
X170740000Y-94824401D02*
X169564000Y-94824401D01*
X173487000Y-95145401D02*
X172420000Y-95145401D01*
X172834000Y-95985401D02*
X170326000Y-95985401D01*
X173654000Y-94464401D02*
X172420000Y-94464401D01*
X170740000Y-94584401D02*
X169518000Y-94584401D01*
X170740000Y-95065401D02*
X169640000Y-95065401D01*
X170740000Y-94984401D02*
X169612000Y-94984401D01*
X173636000Y-94624401D02*
X172420000Y-94624401D01*
X173614000Y-94744401D02*
X172420000Y-94744401D01*
X170740000Y-94504401D02*
X169509000Y-94504401D01*
X170740000Y-94304401D02*
X169500000Y-94304401D01*
X170740000Y-95345401D02*
X169772000Y-95345401D01*
X170740000Y-95305401D02*
X169750000Y-95305401D01*
X173647000Y-94544401D02*
X172420000Y-94544401D01*
X172976000Y-95865401D02*
X172420000Y-95865401D01*
X172780000Y-96025401D02*
X170380000Y-96025401D01*
X173642000Y-94584401D02*
X172420000Y-94584401D01*
X173167000Y-95665401D02*
X172420000Y-95665401D01*
X170740000Y-95745401D02*
X170064000Y-95745401D01*
X170740000Y-95705401D02*
X170028000Y-95705401D01*
X172244000Y-96305401D02*
X170916000Y-96305401D01*
X173388000Y-95345401D02*
X172420000Y-95345401D01*
X173096000Y-95745401D02*
X172420000Y-95745401D01*
X173548000Y-94984401D02*
X172420000Y-94984401D01*
X170740000Y-95785401D02*
X170102000Y-95785401D01*
X172593000Y-96145401D02*
X170567000Y-96145401D01*
X170740000Y-94544401D02*
X169513000Y-94544401D01*
X170740000Y-94424401D02*
X169503000Y-94424401D01*
X170740000Y-95225401D02*
X169710000Y-95225401D01*
X170740000Y-95545401D02*
X169900000Y-95545401D01*
X173651000Y-94504401D02*
X172420000Y-94504401D01*
X172975000Y-92234600D02*
X172575000Y-92234600D01*
X173660000Y-94344401D02*
X172420000Y-94344401D01*
X173700000Y-94304401D02*
G75*
G03*
X173700000Y-94304401I-2120000J0D01*
G01*
%TO.C,C3*%
X166236000Y-98198000D02*
X160996000Y-98198000D01*
X166236000Y-98513000D02*
X166236000Y-98198000D01*
X166236000Y-100938000D02*
X160996000Y-100938000D01*
X160996000Y-98513000D02*
X160996000Y-98198000D01*
X166236000Y-100938000D02*
X166236000Y-100623000D01*
X160996000Y-100938000D02*
X160996000Y-100623000D01*
%TO.C,U2*%
X160130000Y-102058000D02*
X158480000Y-102058000D01*
X154830000Y-112338000D02*
X160130000Y-112338000D01*
X154830000Y-102058000D02*
X154830000Y-112338000D01*
X156480000Y-102058000D02*
X154830000Y-102058000D01*
X160130000Y-112338000D02*
X160130000Y-102058000D01*
X156480000Y-102058000D02*
G75*
G03*
X158480000Y-102058000I1000000J0D01*
G01*
%TO.C,J3*%
X173288000Y-104902000D02*
X173288000Y-110042000D01*
X170628000Y-102302000D02*
X171958000Y-102302000D01*
X170628000Y-104902000D02*
X173288000Y-104902000D01*
X170628000Y-110042000D02*
X173288000Y-110042000D01*
X170628000Y-104902000D02*
X170628000Y-110042000D01*
X170628000Y-103632000D02*
X170628000Y-102302000D01*
%TO.C,C4*%
X163600000Y-102068000D02*
X168840000Y-102068000D01*
X168840000Y-104493000D02*
X168840000Y-104808000D01*
X163600000Y-104493000D02*
X163600000Y-104808000D01*
X163600000Y-102068000D02*
X163600000Y-102383000D01*
X168840000Y-102068000D02*
X168840000Y-102383000D01*
X163600000Y-104808000D02*
X168840000Y-104808000D01*
%TO.C,D2*%
X150390000Y-107421057D02*
X150390000Y-107534686D01*
X151716371Y-106094686D02*
G75*
G03*
X151716371Y-106094686I-1326371J0D01*
G01*
%TO.C,U1*%
X158456000Y-93236000D02*
X168696000Y-93236000D01*
X158456000Y-96367000D02*
X168696000Y-96367000D01*
X165427000Y-91726000D02*
X165427000Y-93236000D01*
X158456000Y-91726000D02*
X158456000Y-96367000D01*
X158456000Y-91726000D02*
X168696000Y-91726000D01*
X168696000Y-91726000D02*
X168696000Y-96367000D01*
X161726000Y-91726000D02*
X161726000Y-93236000D01*
%TO.C,R1*%
X148274000Y-107208133D02*
G75*
G03*
X146824641Y-107111095I-700000J417133D01*
G01*
%TO.C,R3*%
X167956000Y-108437867D02*
G75*
G03*
X169405359Y-108534905I700000J-417133D01*
G01*
%TO.C,D1*%
X142263000Y-94102000D02*
X142263000Y-99944000D01*
X142263000Y-99944000D02*
G75*
G03*
X143406000Y-92959000I4064000J2921000D01*
G01*
%TO.C,C1*%
X157518000Y-94652888D02*
X155980000Y-94652888D01*
X157420000Y-95253888D02*
X155980000Y-95253888D01*
X153900000Y-94972888D02*
X152397000Y-94972888D01*
X153900000Y-94852888D02*
X152379000Y-94852888D01*
X153900000Y-96213888D02*
X152969000Y-96213888D01*
X153900000Y-95293888D02*
X152472000Y-95293888D01*
X153900000Y-94932888D02*
X152390000Y-94932888D01*
X157476000Y-95012888D02*
X155980000Y-95012888D01*
X153900000Y-94612888D02*
X152361000Y-94612888D01*
X156683000Y-96453888D02*
X155980000Y-96453888D01*
X157513000Y-94732888D02*
X155980000Y-94732888D01*
X157305000Y-95573888D02*
X155980000Y-95573888D01*
X156545000Y-96573888D02*
X153335000Y-96573888D01*
X153900000Y-94892888D02*
X152384000Y-94892888D01*
X157460000Y-95092888D02*
X155980000Y-95092888D01*
X156766000Y-96373888D02*
X155980000Y-96373888D01*
X156841000Y-96293888D02*
X155980000Y-96293888D01*
X153900000Y-95733888D02*
X152650000Y-95733888D01*
X157208000Y-95773888D02*
X155980000Y-95773888D01*
X153900000Y-95373888D02*
X152498000Y-95373888D01*
X156593000Y-96533888D02*
X155980000Y-96533888D01*
X156191000Y-96813888D02*
X153689000Y-96813888D01*
X157354000Y-95453888D02*
X155980000Y-95453888D01*
X153900000Y-95212888D02*
X152449000Y-95212888D01*
X153900000Y-96253888D02*
X153003000Y-96253888D01*
X157140000Y-95893888D02*
X155980000Y-95893888D01*
X156804000Y-96333888D02*
X155980000Y-96333888D01*
X156877000Y-96253888D02*
X155980000Y-96253888D01*
X153900000Y-95973888D02*
X152791000Y-95973888D01*
X155458000Y-97093888D02*
X154422000Y-97093888D01*
X157322000Y-95533888D02*
X155980000Y-95533888D01*
X153900000Y-95052888D02*
X152412000Y-95052888D01*
X157089000Y-95973888D02*
X155980000Y-95973888D01*
X157520000Y-94572888D02*
X155980000Y-94572888D01*
X157468000Y-95052888D02*
X155980000Y-95052888D01*
X153900000Y-95653888D02*
X152611000Y-95653888D01*
X157230000Y-95733888D02*
X155980000Y-95733888D01*
X157501000Y-94852888D02*
X155980000Y-94852888D01*
X157431000Y-95212888D02*
X155980000Y-95212888D01*
X156259000Y-96773888D02*
X153621000Y-96773888D01*
X156038000Y-96893888D02*
X153842000Y-96893888D01*
X153900000Y-95613888D02*
X152592000Y-95613888D01*
X156725000Y-96413888D02*
X155980000Y-96413888D01*
X157441000Y-95172888D02*
X155980000Y-95172888D01*
X153900000Y-94532888D02*
X152360000Y-94532888D01*
X153900000Y-96533888D02*
X153287000Y-96533888D01*
X155745000Y-97013888D02*
X154135000Y-97013888D01*
X157269000Y-95653888D02*
X155980000Y-95653888D01*
X153900000Y-95933888D02*
X152765000Y-95933888D01*
X157035000Y-96053888D02*
X155980000Y-96053888D01*
X157164000Y-95853888D02*
X155980000Y-95853888D01*
X153900000Y-95813888D02*
X152693000Y-95813888D01*
X153900000Y-95253888D02*
X152460000Y-95253888D01*
X157187000Y-95813888D02*
X155980000Y-95813888D01*
X153900000Y-96053888D02*
X152845000Y-96053888D01*
X153900000Y-95573888D02*
X152575000Y-95573888D01*
X153900000Y-95333888D02*
X152485000Y-95333888D01*
X155855000Y-96973888D02*
X154025000Y-96973888D01*
X157451000Y-95132888D02*
X155980000Y-95132888D01*
X157490000Y-94932888D02*
X155980000Y-94932888D01*
X153900000Y-95533888D02*
X152558000Y-95533888D01*
X153900000Y-96013888D02*
X152818000Y-96013888D01*
X157520000Y-94532888D02*
X155980000Y-94532888D01*
X157516000Y-94692888D02*
X155980000Y-94692888D01*
X156639000Y-96493888D02*
X155980000Y-96493888D01*
X156911000Y-96213888D02*
X155980000Y-96213888D01*
X153900000Y-96333888D02*
X153076000Y-96333888D01*
X157395000Y-95333888D02*
X155980000Y-95333888D01*
X157483000Y-94972888D02*
X155980000Y-94972888D01*
X153900000Y-96093888D02*
X152875000Y-96093888D01*
X156944000Y-96173888D02*
X155980000Y-96173888D01*
X157505000Y-94812888D02*
X155980000Y-94812888D01*
X156975000Y-96133888D02*
X155980000Y-96133888D01*
X153900000Y-95493888D02*
X152542000Y-95493888D01*
X157496000Y-94892888D02*
X155980000Y-94892888D01*
X153900000Y-96293888D02*
X153039000Y-96293888D01*
X153900000Y-94812888D02*
X152375000Y-94812888D01*
X153900000Y-95773888D02*
X152672000Y-95773888D01*
X153900000Y-95413888D02*
X152512000Y-95413888D01*
X153900000Y-96453888D02*
X153197000Y-96453888D01*
X153900000Y-95172888D02*
X152439000Y-95172888D01*
X156665000Y-91978113D02*
X156165000Y-91978113D01*
X156118000Y-96853888D02*
X153762000Y-96853888D01*
X153900000Y-95693888D02*
X152630000Y-95693888D01*
X157250000Y-95693888D02*
X155980000Y-95693888D01*
X156494000Y-96613888D02*
X153386000Y-96613888D01*
X153900000Y-95893888D02*
X152740000Y-95893888D01*
X153900000Y-95092888D02*
X152420000Y-95092888D01*
X153900000Y-94692888D02*
X152364000Y-94692888D01*
X156440000Y-96653888D02*
X153440000Y-96653888D01*
X153900000Y-95012888D02*
X152404000Y-95012888D01*
X153900000Y-94652888D02*
X152362000Y-94652888D01*
X153900000Y-94772888D02*
X152371000Y-94772888D01*
X153900000Y-96413888D02*
X153155000Y-96413888D01*
X157115000Y-95933888D02*
X155980000Y-95933888D01*
X157519000Y-94612888D02*
X155980000Y-94612888D01*
X157005000Y-96093888D02*
X155980000Y-96093888D01*
X157062000Y-96013888D02*
X155980000Y-96013888D01*
X156323000Y-96733888D02*
X153557000Y-96733888D01*
X157382000Y-95373888D02*
X155980000Y-95373888D01*
X153900000Y-96373888D02*
X153114000Y-96373888D01*
X157338000Y-95493888D02*
X155980000Y-95493888D01*
X153900000Y-96133888D02*
X152905000Y-96133888D01*
X156415000Y-91728113D02*
X156415000Y-92228113D01*
X155224000Y-97133888D02*
X154656000Y-97133888D01*
X157288000Y-95613888D02*
X155980000Y-95613888D01*
X153900000Y-94572888D02*
X152360000Y-94572888D01*
X153900000Y-95132888D02*
X152429000Y-95132888D01*
X156383000Y-96693888D02*
X153497000Y-96693888D01*
X153900000Y-96173888D02*
X152936000Y-96173888D01*
X153900000Y-94732888D02*
X152367000Y-94732888D01*
X155951000Y-96933888D02*
X153929000Y-96933888D01*
X155617000Y-97053888D02*
X154263000Y-97053888D01*
X153900000Y-95453888D02*
X152526000Y-95453888D01*
X157509000Y-94772888D02*
X155980000Y-94772888D01*
X157368000Y-95413888D02*
X155980000Y-95413888D01*
X153900000Y-96493888D02*
X153241000Y-96493888D01*
X153900000Y-95853888D02*
X152716000Y-95853888D01*
X157408000Y-95293888D02*
X155980000Y-95293888D01*
X157560000Y-94532888D02*
G75*
G03*
X157560000Y-94532888I-2620000J0D01*
G01*
%TO.C,J2*%
X159318000Y-98238000D02*
X159318000Y-99568000D01*
X156718000Y-98238000D02*
X156718000Y-100898000D01*
X156718000Y-100898000D02*
X154118000Y-100898000D01*
X156718000Y-98238000D02*
X154118000Y-98238000D01*
X154118000Y-98238000D02*
X154118000Y-100898000D01*
X157988000Y-98238000D02*
X159318000Y-98238000D01*
%TO.C,J1*%
X142688000Y-107188000D02*
X142688000Y-109788000D01*
X142688000Y-104588000D02*
X144018000Y-104588000D01*
X142688000Y-109788000D02*
X145348000Y-109788000D01*
X145348000Y-107188000D02*
X145348000Y-109788000D01*
X142688000Y-105918000D02*
X142688000Y-104588000D01*
X142688000Y-107188000D02*
X145348000Y-107188000D01*
%TD*%
%LPC*%
D12*
%TO.C,J4*%
X169672000Y-99568000D03*
D13*
X172212000Y-99568000D03*
%TD*%
D14*
%TO.C,R2*%
X166116000Y-108855000D03*
D15*
X166116000Y-106955000D03*
%TD*%
D16*
%TO.C,C2*%
X171580000Y-93554401D03*
D17*
X171580000Y-95054401D03*
%TD*%
D18*
%TO.C,C3*%
X166116000Y-99568000D03*
X161116000Y-99568000D03*
%TD*%
D19*
%TO.C,U2*%
X153670000Y-103388000D03*
D20*
X153670000Y-105928000D03*
X153670000Y-108468000D03*
X153670000Y-111008000D03*
X161290000Y-111008000D03*
X161290000Y-108468000D03*
X161290000Y-105928000D03*
X161290000Y-103388000D03*
%TD*%
D12*
%TO.C,J3*%
X171958000Y-103632000D03*
D13*
X171958000Y-106172000D03*
X171958000Y-108712000D03*
%TD*%
D18*
%TO.C,C4*%
X163720000Y-103438000D03*
X168720000Y-103438000D03*
%TD*%
D19*
%TO.C,D2*%
X150390000Y-106094686D03*
D20*
X150390000Y-108634686D03*
%TD*%
D21*
%TO.C,U1*%
X161036000Y-94996000D03*
D22*
X163576000Y-94996000D03*
X166116000Y-94996000D03*
%TD*%
D14*
%TO.C,R1*%
X147574000Y-106791000D03*
D15*
X147574000Y-108691000D03*
%TD*%
D14*
%TO.C,R3*%
X168656000Y-108855000D03*
D15*
X168656000Y-106955000D03*
%TD*%
D23*
%TO.C,D1*%
X143787000Y-94483000D03*
D24*
X143787000Y-99563000D03*
X148867000Y-99563000D03*
X148867000Y-94483000D03*
%TD*%
D19*
%TO.C,C1*%
X154940000Y-93532888D03*
D18*
X154940000Y-95532888D03*
%TD*%
D12*
%TO.C,J2*%
X157988000Y-99568000D03*
D13*
X155448000Y-99568000D03*
%TD*%
D12*
%TO.C,J1*%
X144018000Y-105918000D03*
D13*
X144018000Y-108458000D03*
%TD*%
M02*
