%TF.GenerationSoftware,KiCad,Pcbnew,(6.0.0)*%
%TF.CreationDate,2022-03-04T17:55:49+13:00*%
%TF.ProjectId,DCC_PCB,4443435f-5043-4422-9e6b-696361645f70,rev?*%
%TF.SameCoordinates,Original*%
%TF.FileFunction,Soldermask,Bot*%
%TF.FilePolarity,Negative*%
%FSLAX46Y46*%
G04 Gerber Fmt 4.6, Leading zero omitted, Abs format (unit mm)*
G04 Created by KiCad (PCBNEW (6.0.0)) date 2022-03-04 17:55:49*
%MOMM*%
%LPD*%
G01*
G04 APERTURE LIST*
%ADD10C,1.400000*%
%ADD11O,1.400000X1.400000*%
%ADD12R,1.200000X1.200000*%
%ADD13C,1.200000*%
%ADD14C,1.600000*%
%ADD15R,1.600000X1.600000*%
%ADD16O,1.600000X1.600000*%
%ADD17R,1.700000X1.700000*%
%ADD18O,1.700000X1.700000*%
%ADD19R,1.905000X2.000000*%
%ADD20O,1.905000X2.000000*%
%ADD21R,2.000000X2.000000*%
%ADD22O,2.000000X2.000000*%
G04 APERTURE END LIST*
D10*
%TO.C,R2*%
X166116000Y-108855000D03*
D11*
X166116000Y-106955000D03*
%TD*%
D12*
%TO.C,C2*%
X171580000Y-93554401D03*
D13*
X171580000Y-95054401D03*
%TD*%
D14*
%TO.C,C3*%
X166116000Y-99568000D03*
X161116000Y-99568000D03*
%TD*%
D15*
%TO.C,U2*%
X153670000Y-103388000D03*
D16*
X153670000Y-105928000D03*
X153670000Y-108468000D03*
X153670000Y-111008000D03*
X161290000Y-111008000D03*
X161290000Y-108468000D03*
X161290000Y-105928000D03*
X161290000Y-103388000D03*
%TD*%
D17*
%TO.C,J3*%
X171958000Y-103632000D03*
D18*
X171958000Y-106172000D03*
X171958000Y-108712000D03*
%TD*%
D14*
%TO.C,C4*%
X163720000Y-103438000D03*
X168720000Y-103438000D03*
%TD*%
D15*
%TO.C,D2*%
X150390000Y-106094686D03*
D16*
X150390000Y-108634686D03*
%TD*%
D19*
%TO.C,U1*%
X161036000Y-94996000D03*
D20*
X163576000Y-94996000D03*
X166116000Y-94996000D03*
%TD*%
D10*
%TO.C,R1*%
X147574000Y-106791000D03*
D11*
X147574000Y-108691000D03*
%TD*%
D17*
%TO.C,J4*%
X169672000Y-99568000D03*
D18*
X172212000Y-99568000D03*
%TD*%
D10*
%TO.C,R3*%
X168656000Y-108855000D03*
D11*
X168656000Y-106955000D03*
%TD*%
D21*
%TO.C,D1*%
X143787000Y-94483000D03*
D22*
X143787000Y-99563000D03*
X148867000Y-99563000D03*
X148867000Y-94483000D03*
%TD*%
D15*
%TO.C,C1*%
X154940000Y-93532888D03*
D14*
X154940000Y-95532888D03*
%TD*%
D17*
%TO.C,J2*%
X157988000Y-99568000D03*
D18*
X155448000Y-99568000D03*
%TD*%
D17*
%TO.C,J1*%
X144018000Y-105918000D03*
D18*
X144018000Y-108458000D03*
%TD*%
M02*
