M48
; DRILL file {KiCad (6.0.0)} date Fri Mar  4 17:55:49 2022
; FORMAT={-:-/ absolute / inch / decimal}
; #@! TF.CreationDate,2022-03-04T17:55:49+13:00
; #@! TF.GenerationSoftware,Kicad,Pcbnew,(6.0.0)
; #@! TF.FileFunction,Plated,1,2,PTH
FMAT,2
INCH
; #@! TA.AperFunction,Plated,PTH,ComponentDrill
T1C0.0236
; #@! TA.AperFunction,Plated,PTH,ComponentDrill
T2C0.0276
; #@! TA.AperFunction,Plated,PTH,ComponentDrill
T3C0.0315
; #@! TA.AperFunction,Plated,PTH,ComponentDrill
T4C0.0394
; #@! TA.AperFunction,Plated,PTH,ComponentDrill
T5C0.0433
%
G90
G05
T1
X6.7551Y-3.6832
X6.7551Y-3.7423
T2
X5.81Y-4.2044
X5.81Y-4.2792
X6.54Y-4.2108
X6.54Y-4.2856
X6.64Y-4.2108
X6.64Y-4.2856
T3
X5.9209Y-4.177
X5.9209Y-4.277
X6.05Y-4.0704
X6.05Y-4.1704
X6.05Y-4.2704
X6.05Y-4.3704
X6.1Y-3.6824
X6.1Y-3.7611
X6.3431Y-3.92
X6.35Y-4.0704
X6.35Y-4.1704
X6.35Y-4.2704
X6.35Y-4.3704
X6.4457Y-4.0724
X6.54Y-3.92
X6.6425Y-4.0724
T4
X5.6609Y-3.7198
X5.6609Y-3.9198
X5.67Y-4.17
X5.67Y-4.27
X5.8609Y-3.7198
X5.8609Y-3.9198
X6.12Y-3.92
X6.22Y-3.92
X6.68Y-3.92
X6.77Y-4.08
X6.77Y-4.18
X6.77Y-4.28
X6.78Y-3.92
T5
X6.34Y-3.74
X6.44Y-3.74
X6.54Y-3.74
T0
M30
